<?xml version="1.0" encoding="utf-8"?>
<!-- Generator: Adobe Illustrator 26.1.0, SVG Export Plug-In . SVG Version: 6.00 Build 0)  -->
<svg version="1.1" xmlns="http://www.w3.org/2000/svg" xmlns:xlink="http://www.w3.org/1999/xlink" x="0px" y="0px"
	 viewBox="0 0 578 1024" style="enable-background:new 0 0 578 1024;" xml:space="preserve">
<style type="text/css">
	.st0{display:none;}
	.st1{fill:#754C29;}
	.st2{display:inline;fill:#FBD3A8;}
	.st3{display:inline;opacity:0.35;fill:#F8A364;}
	.st4{display:inline;}
	.st5{fill:#FBD3A8;}
	.st6{fill:#FBBD89;}
	.st7{fill:#603813;}
	.st8{display:inline;fill:#F15A29;}
	.st9{display:inline;fill:#F7941D;}
	.st10{display:inline;fill:#333333;}
	.st11{fill:#E6E6E6;}
	.st12{fill:#DD3B10;}
	.st13{opacity:0.22;fill:#231F20;}
	.st14{fill:#F7941D;}
	.st15{fill:#1A4C82;}
	.st16{fill:#F8A364;}
	.st17{fill:#4D4E4E;}
	.st18{fill:#FFFFFF;}
	.st19{fill:#EF8971;}
	.st20{display:inline;fill:#707376;}
	.st21{display:inline;fill:#754C29;}
</style>
<g id="Layer_1" class="st0">
	<path class="st1" d="M279.1,709.2h-4.8h-87.1l8.1,175.3c0.1,1.6,1,3,2.4,3.7c12.8,6.6,48,8.9,62.5,0c1.2-0.8,2-2.1,2.1-3.5
		l5.4-101.5c0.1-2,1.2-3.8,3-4.9l0.1-0.1c3.8-2.2,8.4-2.2,12.2,0.1l0,0c1.7,1,2.8,2.8,2.9,4.8l5.4,101.6c0.1,1.4,0.9,2.8,2.1,3.5
		c14.5,8.9,49.7,6.6,62.5,0c1.4-0.7,2.3-2.1,2.4-3.7l8.1-175.3H279.1z"/>
	<path class="st2" d="M374.1,709.8l4.6-19.7l0,0c0-5.8-0.3-11.6-1.1-17.3c-5.2-41-18.1-91.2-31.6-130.3c-3.2-9.3-5.2-19-6-28.8
		l-0.3-4.5c-0.8-10.9,9.8-19,20.1-15.4h0c6,2.1,10.4,7.1,11.9,13.2c11,45.9,26.1,140.1,28.7,164c0.6,5.3,0.8,10.7,0.8,16.1v0
		c1.5,16.3,6.6,30.7,5.7,40.6c-0.2,2.1-1.1,4-2.7,5.5l-6.1,5.9c-1.2,5-4,8-9.9,7.1c-2.3,3.6-4.5,6.7-6.6,7.5
		c-0.6,0.3-1.3-0.2-1.2-0.8c0.8-5.9,4.3-34.3,3-34.5c-4.2-0.5-4.5,15.8-7.9,15.4c-2.7-0.3-2.3-14.8-2.1-20.1
		C373.7,712.3,373.8,711.1,374.1,709.8z"/>
	<path class="st2" d="M159.6,709.8l-4.6-19.7l0,0c0-5.8,0.3-11.6,1.1-17.3c5.2-41,18.1-91.2,31.6-130.3c3.2-9.3,5.2-19,6-28.8
		l0.3-4.5c0.8-10.9-9.8-19-20.1-15.4h0c-6,2.1-10.4,7.1-11.9,13.2c-11,45.9-26.1,140.1-28.7,164c-0.6,5.3-0.8,10.7-0.8,16.1v0
		c-1.5,16.3-6.6,30.7-5.7,40.6c0.2,2.1,1.1,4,2.7,5.5l6.1,5.9c1.2,5,4,8,9.9,7.1c2.3,3.6,4.5,6.7,6.6,7.5c0.6,0.3,1.3-0.2,1.2-0.8
		c-0.8-5.9-4.3-34.3-3-34.5c4.2-0.5,4.5,15.8,7.9,15.4c2.7-0.3,2.3-14.8,2.1-20.1C160,712.3,159.9,711.1,159.6,709.8z"/>
	<path class="st2" d="M297.2,424.3h-27.9h-4.2h-27.9c0.5,24.3-2.9,39.6-6.5,49.2c-1.3,3.6-0.3,7.7,2.6,10.2
		c13.1,11.7,52.2,15.9,68.1-1.3c2.4-2.6,3.1-6.3,1.9-9.6C300,463.3,296.7,448.1,297.2,424.3z"/>
	<path class="st3" d="M239.2,427.6l56.5,0.4l1,16.5c-9,13.2-52.4,12.7-59.1-0.6L239.2,427.6z"/>
	<g class="st4">
		<path class="st5" d="M135.6,361.5c-25.8,0-42.3-34.4-34.3-56.5c1.9-5.4,5.8-9.9,11-12.2c9.3-4,17.8,0.9,23.3,4.6V361.5z"/>
		<path class="st6" d="M126.6,347.5c-16.1-3.4-23.2-42.6-3.1-40.1l11.4,1.3V349L126.6,347.5z"/>
		<path class="st7" d="M134.4,310.4c-2.6-0.9-5.2-1.8-7.9-2.2c-2.7-0.4-5.4-0.5-7.9,0.4c-2.5,0.9-4.5,2.8-5.6,5.3
			c-1.1,2.5-1.6,5.3-1.8,8.2c-0.1-2.8,0.1-5.7,1-8.5c0.9-2.8,3-5.3,5.8-6.6c2.8-1.3,5.9-1.5,8.8-1.4c3,0.2,5.8,0.8,8.6,1.5
			L134.4,310.4z"/>
	</g>
	<g class="st4">
		<path class="st5" d="M399.8,361.5c25.8,0,42.3-34.4,34.3-56.5c-1.9-5.4-5.8-9.9-11-12.2c-9.3-4-17.8,0.9-23.3,4.6V361.5z"/>
		<path class="st6" d="M408.8,347.5c16.1-3.4,23.2-42.6,3.1-40.1l-11.4,1.3V349L408.8,347.5z"/>
		<path class="st7" d="M400,307.1c2.8-0.7,5.7-1.3,8.6-1.5c2.9-0.1,6,0,8.8,1.4c2.8,1.3,4.9,3.8,5.8,6.6c0.9,2.8,1.1,5.7,1,8.5
			c-0.2-2.8-0.6-5.6-1.8-8.2c-1.1-2.5-3.2-4.5-5.6-5.3c-2.5-0.9-5.2-0.8-7.9-0.4c-2.7,0.5-5.3,1.3-7.9,2.2L400,307.1z"/>
	</g>
	<path class="st2" d="M410.7,229.5C388,138,330.9,118.7,276,115c-7.2-0.5-14.3-0.4-21.3,0.3c-69.3,6.2-123.6,62-130.3,131.3
		C113.1,365.3,150.3,440,266.8,442.8h3.6C392.3,439.8,442,355.4,410.7,229.5z"/>
	<g>
		<path class="st8" d="M382.9,497.3c-6.2-12.6-17.1-22.2-30.5-26.5l-40-13.2c-6.9,15.8-14.4,25.6-32.3,25.8
			c-17.9-0.2-25.2-10-32.1-25.8l-40.2,13.2c-13.3,4.4-24.3,13.9-30.5,26.5l-28.6,58.5l37.5,14.7l14,136.7h75.9h7.8H360l13.3-136.7
			l38.2-14.7L382.9,497.3z"/>
		<path class="st9" d="M377.4,707.3c0,0-3.2-44.3-4.1-136.7c-27.4-0.3-25-48.9-26.3-101.5l-13.2-4.1c2.1,49.3-16,75.2-54,78.1
			c-38-2.8-56.1-28.8-54-78.1l-13.2,4.6c-1.3,52.6,1.1,100.7-26.3,101c-0.9,92.5-5.3,136.7-5.3,136.7
			C239.4,731.4,328.7,728.5,377.4,707.3z"/>
	</g>
	<polygon class="st2" points="339,715 195,715 185,512 349,512 	"/>
	<ellipse class="st2" cx="267" cy="507.5" rx="104" ry="36.5"/>
	<path class="st2" d="M205,943l29,1l12.5-170.3h-56.6C196.6,849.4,205,943,205,943z"/>
	<path class="st2" d="M247,982c0,8.3-14.1,15-31.5,15s-31.5-6.7-31.5-15s13-49,33-49C238,933,247,973.7,247,982z"/>
	<path class="st2" d="M328.2,943l-29,1l-12.5-170.3h56.6C336.7,849.4,328.2,943,328.2,943z"/>
	<path class="st2" d="M286.2,982c0,8.3,14.1,15,31.5,15s31.5-6.7,31.5-15s-13-49-33-49C295.2,933,286.2,973.7,286.2,982z"/>
</g>
<g id="Layer_2" class="st0">
	<path class="st10" d="M230.9,160.7c-109-1.6-75,126.3-102.4,186.9c-67.9-156-54.2-268,72.3-282.9c61.7-106.7,149,33.5,242,4.6
		c-1.2,7.9-5.6,14-11.1,19.7c-0.3,0.3-0.1,0.9,0.4,0.8c10.3-1,19.1-5.2,25.9-12.9c0,12.1-5.9,20.5-16.4,26c-0.4,0.2-0.3,0.9,0.2,0.9
		c8.1,0.5,15.8-1.6,22.9-6.8c-1.2,7-5.7,11.9-11,15.9c-0.3,0.3-0.2,0.8,0.2,0.8c32.2,5.8,42.7,27.6,32.6,60.6
		c-10.3,56.5-22.9,105.6-79.8,172.7c0.4-41.9-1-80.9-7.5-112c-0.7-3.4-3.6-5.9-7.1-6.1c-78.3-4.4-127.3-26.1-154.9-64.9
		C235.6,162,233.3,160.8,230.9,160.7z"/>
</g>
<g id="Layer_3">
	<path class="st11" d="M236.1,923.3l1.4-18.5l-36.2,0.1c0,0,1.8,16.6,1.8,21c0,0-2.2,10.4-6.1,16.9c-3.9,6.5,7.2,13.1,21.5,13.1
		c14.3,0,21.8-2.7,22.2-7.1C241.2,944.6,236.1,931,236.1,923.3z"/>
	<path class="st12" d="M253.4,985.8c-0.9-8.2-6.1-11-6.1-11c0-1.9-32.7,0-32.7,0s-32.7-1.9-32.7,0c0,0-5.2,2.8-6.1,11
		c-0.9,8.2-3,18.2,38.8,18.2C256.4,1004,254.3,994,253.4,985.8z"/>
	<path class="st13" d="M214.6,1004c41.8,0,39.7-10,38.8-18.2c-0.7-6.5-4-9.6-5.4-10.6l-9.4,4.2c0,0,7.1,17.1-28.5,19.7
		c-35.6,2.6-34.3-13.3-34.3-13.3C175,994,172.8,1004,214.6,1004z"/>
	<path class="st14" d="M229.6,943.3c0,0,0.4-6.9-3.9-7.4c-4.3-0.4-14.3-0.4-17.8,0c-3.5,0.4-4.8,7.4-4.8,7.4s-7.4-0.4-9.1,4.8
		c-1.7,5.2-13,25.1-13.9,32.9c0,0,7.3,4.8,38.3,4.8c31,0,30.6-5.2,30.6-5.2s-7.7-26.6-8.3-31.7C240.1,943.9,229.6,943.3,229.6,943.3
		z"/>
	<path class="st13" d="M249.1,980.6c0,0-7.7-26.6-8.3-31.7c-1.2,38.8-60.6,32.1-60.6,32.1s7.3,4.8,38.3,4.8
		C249.5,985.8,249.1,980.6,249.1,980.6z"/>
	<g>
		<polygon class="st15" points="237.5,906.3 201.4,906.3 201.3,903.5 237.7,903.5 		"/>
	</g>
	<path class="st11" d="M297.2,923.3l-1.4-18.5L332,905c0,0-1.8,16.6-1.8,21c0,0,2.2,10.4,6.1,16.9c3.9,6.5-7.2,13.1-21.5,13.1
		c-14.3,0-21.8-2.7-22.2-7.1C292,944.6,297.2,931,297.2,923.3z"/>
	<path class="st12" d="M279.8,985.8c0.9-8.2,6.1-11,6.1-11c0-1.9,32.7,0,32.7,0s32.7-1.9,32.7,0c0,0,5.2,2.8,6.1,11
		c0.9,8.2,3,18.2-38.8,18.2C276.8,1004,279,994,279.8,985.8z"/>
	<path class="st13" d="M318.6,1004c-41.8,0-39.7-10-38.8-18.2c0.7-6.5,4-9.6,5.4-10.6l9.4,4.2c0,0-7.1,17.1,28.5,19.7
		c35.6,2.6,34.3-13.3,34.3-13.3C358.3,994,360.4,1004,318.6,1004z"/>
	<path class="st14" d="M303.7,943.3c0,0-0.4-6.9,3.9-7.4c4.3-0.4,14.3-0.4,17.8,0c3.5,0.4,4.8,7.4,4.8,7.4s7.4-0.4,9.1,4.8
		c1.7,5.2,13,25.1,13.9,32.9c0,0-7.3,4.8-38.3,4.8c-31,0-30.6-5.2-30.6-5.2s7.7-26.6,8.3-31.7C293.1,943.9,303.7,943.3,303.7,943.3z
		"/>
	<path class="st13" d="M284.2,980.6c0,0,7.7-26.6,8.3-31.7c1.2,38.8,60.6,32.1,60.6,32.1s-7.3,4.8-38.3,4.8
		C283.7,985.8,284.2,980.6,284.2,980.6z"/>
	<g>
		<polygon class="st15" points="295.7,906.3 331.8,906.3 332,903.5 295.6,903.5 		"/>
	</g>
</g>
<g id="Layer_4">
	<path class="st1" d="M270,715h-4.6h-83.4l7.8,207.9c0.1,1.5,0.9,2.9,2.3,3.6c12.3,6.3,46,8.5,59.8,0c1.2-0.7,1.9-2,2-3.4l5.1-137.2
		c0.1-1.9,1.2-3.7,2.8-4.7l0.1-0.1c3.6-2.1,8.1-2.1,11.7,0.1l0,0c1.6,1,2.7,2.7,2.8,4.6l5.1,137.3c0.1,1.4,0.8,2.6,2,3.4
		c13.9,8.5,47.5,6.3,59.8,0c1.3-0.7,2.2-2,2.3-3.6l7.8-207.9H270z"/>
	<path class="st14" d="M356,721c0,0-7.5-72.6-8.2-154.9c-24.4-0.3-22.3-43.5-23.4-90.4l-11.7-3.7c1.9,43.9-14.3,67-48.1,69.5
		c-33.8-2.5-50-25.6-48.1-69.5l-11.7,4.1c-1.1,46.8,1,89.6-23.4,89.9c-0.8,82.3-4.7,156.8-4.7,156.8C228.5,744.3,312.7,740,356,721z
		"/>
</g>
<g id="Layer_5" class="st0">
	<g class="st4">
		<path class="st16" d="M265.9,345.4c0.6,0.1,1.1,0,1.7-0.2c10.2-3,11.6,8.4,3.5,9.5c-7.8,0.7-11.9-1.9-14.4-5.3
			c-1.4-1.9-0.3-4.6,2-4.9C260.6,344.1,263.3,344.8,265.9,345.4z"/>
		<g>
			<g>
				<ellipse class="st17" cx="213.2" cy="308.4" rx="11.7" ry="18.7"/>
				<ellipse class="st18" cx="214.4" cy="300.9" rx="5.2" ry="6.5"/>
			</g>
			<g>
				<ellipse class="st17" cx="320.2" cy="308.4" rx="11.7" ry="18.7"/>
				<ellipse class="st18" cx="319" cy="300.9" rx="5.2" ry="6.5"/>
			</g>
		</g>
		<g>
			<path class="st16" d="M233.5,380.6c5.8,1.2,11.5,2.3,17.2,3.2c5.7,0.8,11.3,1.3,17,1.4c5.7,0.1,11.3-0.3,17-1.1
				c5.7-0.8,11.3-1.9,17.2-3.1c-5,3.2-10.6,5.5-16.4,7.1c-5.8,1.6-11.8,2.3-17.9,2.3c-6-0.1-12-0.9-17.8-2.6
				C244.1,386.1,238.6,383.7,233.5,380.6z"/>
			<path class="st16" d="M251.6,396.5c2.9,0.1,5.7,0.3,8.4,0.5c2.8,0.2,5.5,0.3,8.2,0.4c2.7,0.1,5.5,0.1,8.2,0.1
				c2.8,0,5.5-0.1,8.4,0c-2.6,1.3-5.3,2.2-8.2,2.7c-2.8,0.5-5.7,0.8-8.6,0.7c-2.9-0.1-5.8-0.5-8.5-1.2
				C256.9,399,254.2,398,251.6,396.5z"/>
		</g>
		<circle class="st19" cx="188.1" cy="359.7" r="20.4"/>
		<circle class="st19" cx="354.4" cy="359.7" r="20.4"/>
		<g>
			<path class="st17" d="M315,278.6c-10,0.2-13.8-9.4-6.8-15.3c2.9-2.4,6.9-3,10.7-2.6c10.4,1.1,16.9,4.8,18,11.9
				c0.4,2.6-0.3,5.3-2.2,7c-3.7,3.4-9.4,2.1-15.6-0.4C317.7,278.7,316.4,278.6,315,278.6z"/>
			<path class="st17" d="M214.8,278.6c10,0.2,13.8-9.4,6.8-15.3c-2.9-2.4-6.9-3-10.7-2.6c-10.4,1.1-16.9,4.8-18,11.9
				c-0.4,2.6,0.3,5.3,2.2,7c3.7,3.4,9.4,2.1,15.6-0.4C212.1,278.7,213.4,278.6,214.8,278.6z"/>
		</g>
	</g>
	<polygon class="st9" points="344,774 190,774 195,715 339,715 	"/>
	<ellipse class="st20" cx="809.5" cy="882.4" rx="139.3" ry="46.7"/>
	<g class="st4">
		<path class="st5" d="M759.1,841.1h25.6l7.9-117.5H749C754.1,782,759.1,841.1,759.1,841.1z"/>
		<path class="st18" d="M784.6,839l1.1-14.3l-27.9,0.1c0,0,1.4,12.8,1.4,16.2c0,0-1.7,8-4.7,13c-3,5,5.6,10.1,16.6,10.1
			c11,0,16.8-2.1,17.1-5.4C788.6,855.5,784.6,845,784.6,839z"/>
		<path class="st12" d="M798,887.3c-0.7-6.4-4.7-8.5-4.7-8.5c0-1.5-25.3,0-25.3,0s-25.3-1.5-25.3,0c0,0-4,2.1-4.7,8.5
			c-0.7,6.4-2.3,14,29.9,14C800.3,901.3,798.7,893.6,798,887.3z"/>
		<path class="st13" d="M768.1,901.3c32.3,0,30.6-7.7,29.9-14c-0.5-5-3.1-7.4-4.2-8.2l-7.2,3.2c0,0,5.5,13.2-22,15.2
			c-27.5,2-26.5-10.3-26.5-10.3C737.5,893.6,735.8,901.3,768.1,901.3z"/>
		<path class="st14" d="M779.6,854.5c0,0,0.3-5.4-3-5.7c-3.3-0.3-11-0.3-13.7,0c-2.7,0.3-3.7,5.7-3.7,5.7s-5.7-0.3-7,3.7
			c-1.3,4-10,19.4-10.7,25.4c0,0,5.6,3.7,29.6,3.7c23.9,0,23.6-4,23.6-4s-5.9-20.5-6.4-24.4C787.8,854.9,779.6,854.5,779.6,854.5z"
			/>
		<path class="st13" d="M794.6,883.2c0,0-5.9-20.5-6.4-24.4c-0.9,30-46.8,24.8-46.8,24.8s5.6,3.7,29.6,3.7
			C795,887.3,794.6,883.2,794.6,883.2z"/>
		<g>
			<polygon class="st12" points="785.7,825.9 757.9,825.9 757.7,823.7 785.8,823.7 			"/>
		</g>
	</g>
	<g class="st4">
		<path class="st5" d="M857.8,841.1h-25.6l-7.9-117.5h43.7C862.8,782,857.8,841.1,857.8,841.1z"/>
		<path class="st18" d="M832.3,839l-1.1-14.3l27.9,0.1c0,0-1.4,12.8-1.4,16.2c0,0,1.7,8,4.7,13s-5.6,10.1-16.6,10.1
			c-11,0-16.8-2.1-17.1-5.4C828.4,855.5,832.3,845,832.3,839z"/>
		<path class="st12" d="M818.9,887.3c0.7-6.4,4.7-8.5,4.7-8.5c0-1.5,25.3,0,25.3,0s25.3-1.5,25.3,0c0,0,4,2.1,4.7,8.5
			c0.7,6.4,2.3,14-29.9,14S818.3,893.6,818.9,887.3z"/>
		<path class="st13" d="M848.9,901.3c-32.3,0-30.6-7.7-29.9-14c0.5-5,3.1-7.4,4.2-8.2l7.2,3.2c0,0-5.5,13.2,22,15.2
			c27.5,2,26.5-10.3,26.5-10.3C879.5,893.6,881.1,901.3,848.9,901.3z"/>
		<path class="st14" d="M837.3,854.5c0,0-0.3-5.4,3-5.7c3.3-0.3,11-0.3,13.7,0c2.7,0.3,3.7,5.7,3.7,5.7s5.7-0.3,7,3.7
			c1.3,4,10,19.4,10.7,25.4c0,0-5.6,3.7-29.6,3.7c-23.9,0-23.6-4-23.6-4s5.9-20.5,6.4-24.4C829.2,854.9,837.3,854.5,837.3,854.5z"/>
		<path class="st13" d="M822.3,883.2c0,0,5.9-20.5,6.4-24.4c0.9,30,46.8,24.8,46.8,24.8s-5.6,3.7-29.6,3.7
			C822,887.3,822.3,883.2,822.3,883.2z"/>
		<g>
			<polygon class="st12" points="831.2,825.9 859,825.9 859.2,823.7 831.1,823.7 			"/>
		</g>
	</g>
	<path class="st21" d="M810.1,673.9h-3.7h-67.2l6.3,135.3c0.1,1.2,0.8,2.3,1.8,2.9c9.9,5.1,37,6.9,48.2,0c1-0.6,1.6-1.6,1.6-2.7
		l4.1-78.4c0.1-1.6,0.9-3,2.3-3.8l0.1,0c2.9-1.7,6.5-1.7,9.4,0l0,0c1.3,0.8,2.2,2.2,2.2,3.7l4.1,78.4c0.1,1.1,0.7,2.1,1.6,2.7
		c11.2,6.9,38.3,5.1,48.2,0c1.1-0.6,1.8-1.6,1.8-2.9l6.3-135.3H810.1z"/>
	<path class="st2" d="M720.6,682.8l-3.6-15.2l0,0c0-4.5,0.3-8.9,0.8-13.4c4.5-35.4,12.1-68.9,23.8-100.2l-23.8-13.9
		c-8.5,31.2-15.5,92.8-17.6,112.7c-0.4,4.1-0.6,8.3-0.6,12.4v0c-1.2,12.6-5.1,23.7-4.4,31.3c0.1,1.6,0.9,3.1,2.1,4.2l4.7,4.6
		c0.9,3.9,3.1,6.2,7.6,5.5c1.8,2.8,3.4,5.1,5.1,5.8c0.5,0.2,1-0.1,1-0.6c-0.6-4.6-3.3-26.5-2.3-26.6c3.2-0.4,3.5,12.2,6.1,11.9
		c2.1-0.3,1.8-11.4,1.6-15.5C721,684.7,720.8,683.8,720.6,682.8z"/>
	<path class="st2" d="M901.9,682.8l3.6-15.2l0,0c0-4.5-0.3-8.9-0.8-13.4c-4.5-35.4-12.1-68.9-23.8-100.2l23.8-13.9
		c8.5,31.2,15.5,92.8,17.6,112.7c0.4,4.1,0.6,8.3,0.6,12.4v0c1.2,12.6,5.1,23.7,4.4,31.3c-0.1,1.6-0.9,3.1-2.1,4.2l-4.7,4.6
		c-0.9,3.9-3.1,6.2-7.6,5.5c-1.8,2.8-3.4,5.1-5.1,5.8c-0.5,0.2-1-0.1-1-0.6c0.6-4.6,3.3-26.5,2.3-26.6c-3.2-0.4-3.5,12.2-6.1,11.9
		c-2.1-0.3-1.8-11.4-1.6-15.5C901.6,684.7,901.7,683.8,901.9,682.8z"/>
	<path class="st2" d="M834.1,454h-21.5h-3.2h-21.5c0.4,18.8-2.2,30.6-5,38c-1,2.8-0.2,5.9,2,7.9c10.1,9,40.3,12.3,52.6-1
		c1.8-2,2.4-4.8,1.5-7.4C836.2,484.1,833.7,472.4,834.1,454z"/>
	<path class="st8" d="M890.2,510.3c-4.8-9.7-13.2-17.1-23.5-20.5l-30.8-10.2c-5.3,12.2-11.1,19.8-24.9,19.9
		c-13.8-0.1-19.5-7.7-24.8-19.9l-31,10.2c-10.3,3.4-18.8,10.8-23.5,20.5l-22.1,45.1l29,11.4l10.8,105.5h58.5h6h58.5l10.3-105.5
		l29.5-11.4L890.2,510.3z"/>
	<path class="st9" d="M885.9,672.3c0,0-2.5-34.2-3.1-105.5c-21.1-0.3-19.3-37.7-20.3-78.3l-10.1-3.2c1.6,38.1-12.4,58.1-41.7,60.2
		c-29.3-2.2-43.3-22.2-41.7-60.2l-10.1,3.6c-1,40.6,0.8,77.7-20.3,77.9c-0.7,71.3-4.1,105.5-4.1,105.5
		C779.4,690.9,848.4,688.8,885.9,672.3z"/>
</g>
</svg>
