<?xml version="1.0" encoding="utf-8"?>
<!-- Generator: Adobe Illustrator 26.1.0, SVG Export Plug-In . SVG Version: 6.00 Build 0)  -->
<svg version="1.1" xmlns="http://www.w3.org/2000/svg" xmlns:xlink="http://www.w3.org/1999/xlink" x="0px" y="0px"
	 viewBox="0 0 578 1024" style="enable-background:new 0 0 578 1024;" xml:space="preserve">
<style type="text/css">
	.st0{display:none;}
	.st1{display:inline;}
	.st2{display:none;fill:#754C29;}
	.st3{fill:#FBD3A8;}
	.st4{opacity:0.35;fill:#F8A364;enable-background:new    ;}
	.st5{fill:#FBBD89;}
	.st6{fill:#603813;}
	.st7{display:inline;fill:#F15A29;}
	.st8{display:inline;fill:#F7941D;}
	.st9{fill:#E6E6E6;}
	.st10{fill:#DD3B10;}
	.st11{opacity:0.22;fill:#231F20;enable-background:new    ;}
	.st12{fill:#F7941D;}
	.st13{display:inline;fill:#333333;}
	.st14{fill:#4D4E4E;}
	.st15{fill:#F8A364;}
	.st16{fill:#FFFFFF;}
	.st17{fill:#EF8971;}
	.st18{fill:#333333;}
	.st19{fill:#BE1717;}
	.st20{fill:#FF2929;}
	.st21{fill:#FC9EBB;}
	.st22{fill:#EF709E;}
	.st23{fill:#BE1E2D;}
	.st24{fill:#ED1C24;}
	.st25{fill:#1B75BC;}
	.st26{fill:#B7B7B7;}
	.st27{fill:#E8E8E8;}
</style>
<g id="Layer_1" class="st0">
	<g id="Layer_1_00000036945477056029350490000001133524153064209028_" class="st1">
		<path class="st2" d="M279.1,709.2h-4.8h-87.1l8.1,175.3c0.1,1.6,1,3,2.4,3.7c12.8,6.6,48,8.9,62.5,0c1.2-0.8,2-2.1,2.1-3.5
			l5.4-101.5c0.1-2,1.2-3.8,3-4.9l0.1-0.1c3.8-2.2,8.4-2.2,12.2,0.1l0,0c1.7,1,2.8,2.8,2.9,4.8l5.4,101.6c0.1,1.4,0.9,2.8,2.1,3.5
			c14.5,8.9,49.7,6.6,62.5,0c1.4-0.7,2.3-2.1,2.4-3.7l8.1-175.3L279.1,709.2L279.1,709.2z"/>
		<path class="st3" d="M374.1,709.8l4.6-19.7l0,0c0-5.8-0.3-11.6-1.1-17.3c-5.2-41-18.1-91.2-31.6-130.3c-3.2-9.3-5.2-19-6-28.8
			l-0.3-4.5c-0.8-10.9,9.8-19,20.1-15.4l0,0c6,2.1,10.4,7.1,11.9,13.2c11,45.9,26.1,140.1,28.7,164c0.6,5.3,0.8,10.7,0.8,16.1l0,0
			c1.5,16.3,6.6,30.7,5.7,40.6c-0.2,2.1-1.1,4-2.7,5.5l-6.1,5.9c-1.2,5-4,8-9.9,7.1c-2.3,3.6-4.5,6.7-6.6,7.5
			c-0.6,0.3-1.3-0.2-1.2-0.8c0.8-5.9,4.3-34.3,3-34.5c-4.2-0.5-4.5,15.8-7.9,15.4c-2.7-0.3-2.3-14.8-2.1-20.1
			C373.7,712.3,373.8,711.1,374.1,709.8z"/>
		<path class="st3" d="M159.6,709.8l-4.6-19.7l0,0c0-5.8,0.3-11.6,1.1-17.3c5.2-41,18.1-91.2,31.6-130.3c3.2-9.3,5.2-19,6-28.8
			l0.3-4.5c0.8-10.9-9.8-19-20.1-15.4l0,0c-6,2.1-10.4,7.1-11.9,13.2c-11,45.9-26.1,140.1-28.7,164c-0.6,5.3-0.8,10.7-0.8,16.1l0,0
			c-1.5,16.3-6.6,30.7-5.7,40.6c0.2,2.1,1.1,4,2.7,5.5l6.1,5.9c1.2,5,4,8,9.9,7.1c2.3,3.6,4.5,6.7,6.6,7.5c0.6,0.3,1.3-0.2,1.2-0.8
			c-0.8-5.9-4.3-34.3-3-34.5c4.2-0.5,4.5,15.8,7.9,15.4c2.7-0.3,2.3-14.8,2.1-20.1C160,712.3,159.9,711.1,159.6,709.8z"/>
		<path class="st3" d="M297.2,424.3h-27.9h-4.2h-27.9c0.5,24.3-2.9,39.6-6.5,49.2c-1.3,3.6-0.3,7.7,2.6,10.2
			c13.1,11.7,52.2,15.9,68.1-1.3c2.4-2.6,3.1-6.3,1.9-9.6C300,463.3,296.7,448.1,297.2,424.3z"/>
		<path class="st4" d="M239.2,427.6l56.5,0.4l1,16.5c-9,13.2-52.4,12.7-59.1-0.6L239.2,427.6z"/>
		<g>
			<path class="st3" d="M135.6,361.5c-25.8,0-42.3-34.4-34.3-56.5c1.9-5.4,5.8-9.9,11-12.2c9.3-4,17.8,0.9,23.3,4.6V361.5z"/>
			<path class="st5" d="M126.6,347.5c-16.1-3.4-23.2-42.6-3.1-40.1l11.4,1.3V349L126.6,347.5z"/>
			<path class="st6" d="M134.4,310.4c-2.6-0.9-5.2-1.8-7.9-2.2c-2.7-0.4-5.4-0.5-7.9,0.4s-4.5,2.8-5.6,5.3s-1.6,5.3-1.8,8.2
				c-0.1-2.8,0.1-5.7,1-8.5s3-5.3,5.8-6.6c2.8-1.3,5.9-1.5,8.8-1.4c3,0.2,5.8,0.8,8.6,1.5L134.4,310.4z"/>
		</g>
		<g>
			<path class="st3" d="M399.8,361.5c25.8,0,42.3-34.4,34.3-56.5c-1.9-5.4-5.8-9.9-11-12.2c-9.3-4-17.8,0.9-23.3,4.6V361.5z"/>
			<path class="st5" d="M408.8,347.5c16.1-3.4,23.2-42.6,3.1-40.1l-11.4,1.3V349L408.8,347.5z"/>
			<path class="st6" d="M400,307.1c2.8-0.7,5.7-1.3,8.6-1.5c2.9-0.1,6,0,8.8,1.4c2.8,1.3,4.9,3.8,5.8,6.6c0.9,2.8,1.1,5.7,1,8.5
				c-0.2-2.8-0.6-5.6-1.8-8.2c-1.1-2.5-3.2-4.5-5.6-5.3c-2.5-0.9-5.2-0.8-7.9-0.4c-2.7,0.5-5.3,1.3-7.9,2.2L400,307.1z"/>
		</g>
		<path class="st3" d="M410.7,229.5C388,138,330.9,118.7,276,115c-7.2-0.5-14.3-0.4-21.3,0.3c-69.3,6.2-123.6,62-130.3,131.3
			C113.1,365.3,150.3,440,266.8,442.8h3.6C392.3,439.8,442,355.4,410.7,229.5z"/>
		<g class="st0">
			<path class="st7" d="M382.9,497.3c-6.2-12.6-17.1-22.2-30.5-26.5l-40-13.2c-6.9,15.8-14.4,25.6-32.3,25.8
				c-17.9-0.2-25.2-10-32.1-25.8l-40.2,13.2c-13.3,4.4-24.3,13.9-30.5,26.5l-28.6,58.5l37.5,14.7l14,136.7h75.9h7.8H360l13.3-136.7
				l38.2-14.7L382.9,497.3z"/>
			<path class="st8" d="M377.4,707.3c0,0-3.2-44.3-4.1-136.7c-27.4-0.3-25-48.9-26.3-101.5l-13.2-4.1c2.1,49.3-16,75.2-54,78.1
				c-38-2.8-56.1-28.8-54-78.1l-13.2,4.6c-1.3,52.6,1.1,100.7-26.3,101c-0.9,92.5-5.3,136.7-5.3,136.7
				C239.4,731.4,328.7,728.5,377.4,707.3z"/>
		</g>
		<ellipse class="st3" cx="267" cy="507.5" rx="104" ry="36.5"/>
		<path class="st3" d="M205,942.8l29,1.2l33-210h-77.1C196.6,827.3,205,942.8,205,942.8z"/>
		<path class="st3" d="M247,982c0,8.3-14.1,15-31.5,15s-31.5-6.7-31.5-15s13-49,33-49C238,933,247,973.7,247,982z"/>
		<path class="st3" d="M328.2,942.8l-29,1.2L267,734h76.3C336.7,827.3,328.2,942.8,328.2,942.8z"/>
		<path class="st3" d="M286.2,982c0,8.3,14.1,15,31.5,15s31.5-6.7,31.5-15s-13-49-33-49C295.2,933,286.2,973.7,286.2,982z"/>
		<g class="st0">
			<g class="st1">
				<path class="st9" d="M236.1,923.3l1.4-18.5l-36.2,0.1c0,0,1.8,16.6,1.8,21c0,0-2.2,10.4-6.1,16.9c-3.9,6.5,7.2,13.1,21.5,13.1
					s21.8-2.7,22.2-7.1C241.2,944.6,236.1,931,236.1,923.3z"/>
				<path class="st10" d="M253.4,985.8c-0.9-8.2-6.1-11-6.1-11c0-1.9-32.7,0-32.7,0s-32.7-1.9-32.7,0c0,0-5.2,2.8-6.1,11
					c-0.9,8.2-3,18.2,38.8,18.2S254.3,994,253.4,985.8z"/>
				<path class="st11" d="M214.6,1004c41.8,0,39.7-10,38.8-18.2c-0.7-6.5-4-9.6-5.4-10.6l-9.4,4.2c0,0,7.1,17.1-28.5,19.7
					c-35.6,2.6-34.3-13.3-34.3-13.3C175,994,172.8,1004,214.6,1004z"/>
				<path class="st12" d="M229.6,943.3c0,0,0.4-6.9-3.9-7.4c-4.3-0.4-14.3-0.4-17.8,0s-4.8,7.4-4.8,7.4s-7.4-0.4-9.1,4.8
					c-1.7,5.2-13,25.1-13.9,32.9c0,0,7.3,4.8,38.3,4.8s30.6-5.2,30.6-5.2s-7.7-26.6-8.3-31.7C240.1,943.9,229.6,943.3,229.6,943.3z"
					/>
				<path class="st11" d="M249.1,980.6c0,0-7.7-26.6-8.3-31.7c-1.2,38.8-60.6,32.1-60.6,32.1s7.3,4.8,38.3,4.8
					C249.5,985.8,249.1,980.6,249.1,980.6z"/>
				<g>
					<polygon class="st10" points="237.5,906.3 201.4,906.3 201.3,903.5 237.7,903.5 					"/>
				</g>
			</g>
			<g class="st1">
				<path class="st9" d="M297.2,923.3l-1.4-18.5L332,905c0,0-1.8,16.6-1.8,21c0,0,2.2,10.4,6.1,16.9s-7.2,13.1-21.5,13.1
					s-21.8-2.7-22.2-7.1C292,944.6,297.2,931,297.2,923.3z"/>
				<path class="st10" d="M279.8,985.8c0.9-8.2,6.1-11,6.1-11c0-1.9,32.7,0,32.7,0s32.7-1.9,32.7,0c0,0,5.2,2.8,6.1,11
					s3,18.2-38.8,18.2C276.8,1004,279,994,279.8,985.8z"/>
				<path class="st11" d="M318.6,1004c-41.8,0-39.7-10-38.8-18.2c0.7-6.5,4-9.6,5.4-10.6l9.4,4.2c0,0-7.1,17.1,28.5,19.7
					c35.6,2.6,34.3-13.3,34.3-13.3C358.3,994,360.4,1004,318.6,1004z"/>
				<path class="st12" d="M303.7,943.3c0,0-0.4-6.9,3.9-7.4c4.3-0.4,14.3-0.4,17.8,0s4.8,7.4,4.8,7.4s7.4-0.4,9.1,4.8
					s13,25.1,13.9,32.9c0,0-7.3,4.8-38.3,4.8s-30.6-5.2-30.6-5.2s7.7-26.6,8.3-31.7C293.1,943.9,303.7,943.3,303.7,943.3z"/>
				<path class="st11" d="M284.2,980.6c0,0,7.7-26.6,8.3-31.7c1.2,38.8,60.6,32.1,60.6,32.1s-7.3,4.8-38.3,4.8
					C283.7,985.8,284.2,980.6,284.2,980.6z"/>
				<g>
					<polygon class="st10" points="295.7,906.3 331.8,906.3 332,903.5 295.6,903.5 					"/>
				</g>
			</g>
		</g>
		<polyline class="st3" points="195,675 189.9,734 343.3,734 339,675 		"/>
		<g id="Layer_2_00000084520337141101031290000008023302954109902720_" class="st0">
			<path class="st13" d="M230.9,160.7c-109-1.6-75,126.3-102.4,186.9c-67.9-156-54.2-268,72.3-282.9c61.7-106.7,149,33.5,242,4.6
				c-1.2,7.9-5.6,14-11.1,19.7c-0.3,0.3-0.1,0.9,0.4,0.8c10.3-1,19.1-5.2,25.9-12.9c0,12.1-5.9,20.5-16.4,26
				c-0.4,0.2-0.3,0.9,0.2,0.9c8.1,0.5,15.8-1.6,22.9-6.8c-1.2,7-5.7,11.9-11,15.9c-0.3,0.3-0.2,0.8,0.2,0.8
				c32.2,5.8,42.7,27.6,32.6,60.6c-10.3,56.5-22.9,105.6-79.8,172.7c0.4-41.9-1-80.9-7.5-112c-0.7-3.4-3.6-5.9-7.1-6.1
				c-78.3-4.4-127.3-26.1-154.9-64.9C235.6,162,233.3,160.8,230.9,160.7z"/>
			<path class="st13" d="M417.7,123.4c9.1,3.1,17.1,3,23.2-2.1c-8.5-7.7-23.4-15.6-39.7-23.6c19.9-7.3,30.6-25,34.8-50.1
				c-17.3,16.2-34.6,26-51.7,25.7l8.7-25.2c-11.3,7.8-22,13.8-31,14.4c6.4-7.9,10.1-17.7,11.7-29c-39.8,31.7-81.3,22.8-133.8-1.3
				c-25.6-7.7-44.7,9.1-60.8,37.7c-0.8-13.1,1-26.8,3.7-40.8c-8,9.6-13.6,20.7-14.1,34.8c-3-4.2-5-12.2-7-20.3
				c-4.9,11.1-3.8,23.1,1.6,35.6C113.9,103.8,85.4,184,105,235.4c1.2-3.8,2-6.8,4-8.5c1,33.1,4,65.2,10.8,95.6l17.1,21.5
				c-3.5-9.3-6.3-19.2-8.3-29.9l7.8,1.8c-1.1-47.4,5.9-106,40.7-137.9c1,10.7,5.4,20.3,10.2,27.1c3-12.8,6.1-22.9,10.4-29.8
				c28.2,23.4,57.3,36.6,87.8,32.4l-36.8-24.1c33.7,13.9,69.6,16.5,107.5,8.7c-15.2-5-27.1-15.3-37.6-28.1
				c73.5,6.9,85.9,82.6,85.1,150.2l6.9-1c1.1-3.6,2.2-7.7,3.2-12.3c-1,7.9-2.3,15.5-4.1,22.7l19.1-31.3c6.5-36.9,8.3-72.3,2.9-105.1
				c3.8,3.8,6.6,9.9,9.1,17C450.6,173.3,441.2,146.6,417.7,123.4z"/>
			<path class="st13" d="M474.2,200.1c-6.7-19.1-20.9-37.3-35.1-55.4c-12.6-50.9-38.2-59.1-64.8-63.9c5.2-6.2,6.2-15.8,9.2-26.8
				c-5.5,9.6-9.4,17.3-17.5,22.2l4.4-31c-3.4,11.8-7.5,22.3-13.6,29.4c-48.2-59.3-115.5-43.9-194.4,4.9
				c-43.5,26.3-84.2,47.9-112.5,48.3c10.2,8.6,22.2,13.5,35.1,16.5c-4.9,6.6-14.3,8.8-25.6,9.1l26.2,5.7
				c-7.3,5.1-20.1,9.3-35.6,13.1c5.3,4.4,14.9,5.2,26.2,4.5c-17.5,14.1-21.8,31.2-20.7,49.6c10.6-14.2,20.7-25.8,29-27.4
				c-19.7,28.6-25.3,60.3,17.5,114.7c0.3-3.1,0.9-6.1,1.9-9c1.9-5.3,5.7-9.8,10.9-12.1c3.6-1.5,7-1.7,10.2-1.2l0,0l0.6,6.7
				c0.2,2.5,0.4,4.9,0.6,7.2c0.1,0.6,0.1,1.3,0.2,1.9l-0.6-0.1c-0.1,0-0.1,0-0.2,0c0,0.2,0,0.3,0,0.5c0.2,0,0.5,0,0.7,0
				c2,18.6,5.9,31.6,9.9,40.6c0.5,1.1,1,2.1,1.5,3.1c0.3,0.7,0.7,1.3,1,2c10.1-73.5,17.4-136.6,74.6-147.8l-9.3,14.4
				c37.3,4.5,68.8-7.6,95.5-39.8c0.4-0.4,1.1-0.2,1.1,0.3c0.4,9.3-5,14.4-10.8,21.9c14.2-2.2,25.3-7.2,32-16c0.3-0.4,1-0.2,1,0.4
				c-1.3,10.8-6.6,15.8-14.1,24.7c16.4-7,29.3-12.4,38.1-26.1v0.7c0,14.2,4.5,27.9,12.4,39.6c13.5,19.9,23.3,40.8,25.9,59.4
				l1.3-14.9c6.7,21.5,11.1,53.8,13.2,71.3c0.3,2.2,0.5,4.1,0.7,5.8c0,0.3,0.1,0.6,0.1,0.9c0.3,2.6,0.5,4.4,0.5,5.2l1.7-2.1
				c0.6-1,1.4-2.3,2.2-3.9c1.2-2.2,2.6-4.9,4-8c3.7-7.9,7.8-18.3,10.2-29.8c0.1-0.3,0.1-0.6,0.2-0.9c0-0.2,0.1-0.4,0.1-0.6
				c1-5.2,1.7-10.6,1.8-16.1c0.5,0.2,1,0.4,1.6,0.6c5.2,2.2,9,6.8,10.9,12.1c0.6,1.7,1.1,3.5,1.4,5.4l16.1-27.7v11.6
				c13.7-20.3,20.3-30.7,17.1-63.1l2.9,23.4C479.3,239.6,480,219.3,474.2,200.1z"/>
		</g>
		<g id="Layer_4" class="st0">
			<g class="st1">
				<path class="st14" d="M315,278.6c-10,0.2-13.8-9.4-6.8-15.3c2.9-2.4,6.9-3,10.7-2.6c10.4,1.1,16.9,4.8,18,11.9
					c0.4,2.6-0.3,5.3-2.2,7c-3.7,3.4-9.4,2.1-15.6-0.4C317.7,278.7,316.4,278.6,315,278.6z"/>
				<path class="st14" d="M214.8,278.6c10,0.2,13.8-9.4,6.8-15.3c-2.9-2.4-6.9-3-10.7-2.6c-10.4,1.1-16.9,4.8-18,11.9
					c-0.4,2.6,0.3,5.3,2.2,7c3.7,3.4,9.4,2.1,15.6-0.4C212.1,278.7,213.4,278.6,214.8,278.6z"/>
			</g>
			<g class="st1">
				<path class="st15" d="M233.5,380.6c5.8,1.2,11.5,2.3,17.2,3.2c5.7,0.8,11.3,1.3,17,1.4s11.3-0.3,17-1.1
					c5.7-0.8,11.3-1.9,17.2-3.1c-5,3.2-10.6,5.5-16.4,7.1s-11.8,2.3-17.9,2.3c-6-0.1-12-0.9-17.8-2.6
					C244.1,386.1,238.6,383.7,233.5,380.6z"/>
				<path class="st15" d="M251.6,396.5c2.9,0.1,5.7,0.3,8.4,0.5c2.8,0.2,5.5,0.3,8.2,0.4s5.5,0.1,8.2,0.1c2.8,0,5.5-0.1,8.4,0
					c-2.6,1.3-5.3,2.2-8.2,2.7c-2.8,0.5-5.7,0.8-8.6,0.7c-2.9-0.1-5.8-0.5-8.5-1.2C256.9,399,254.2,398,251.6,396.5z"/>
			</g>
		</g>
	</g>
	<g id="Layer_2_00000040554745034067745050000017044355676342110854_" class="st1">
		<g>
			<path class="st15" d="M265.9,345.4c0.6,0.1,1.1,0,1.7-0.2c10.2-3,11.6,8.4,3.5,9.5c-7.8,0.7-11.9-1.9-14.4-5.3
				c-1.4-1.9-0.3-4.6,2-4.9C260.6,344.1,263.3,344.8,265.9,345.4z"/>
			<g>
				<ellipse class="st14" cx="213.2" cy="308.4" rx="11.7" ry="18.7"/>
				<ellipse class="st16" cx="214.4" cy="300.9" rx="5.2" ry="6.5"/>
			</g>
			<g>
				<ellipse class="st14" cx="320.2" cy="308.4" rx="11.7" ry="18.7"/>
				<ellipse class="st16" cx="319" cy="300.9" rx="5.2" ry="6.5"/>
			</g>
			<circle class="st17" cx="188.1" cy="359.7" r="20.4"/>
			<circle class="st17" cx="354.4" cy="359.7" r="20.4"/>
			<g>
				<path class="st17" d="M200.8,284.6c1.2,2.3,1,4.8-0.5,5.5c-1.4,0.7-3.6-0.6-4.7-2.9c-1.2-2.3-1-4.8,0.5-5.5
					C197.5,281,199.6,282.2,200.8,284.6z"/>
				<path class="st17" d="M191.5,307.2c2.6-0.2,4.6-1.7,4.4-3.3c-0.1-1.6-2.4-2.7-5-2.5s-4.6,1.7-4.4,3.3
					C186.7,306.3,189,307.4,191.5,307.2z"/>
				<path class="st17" d="M193.4,291.8c2.5,0.8,4.1,2.7,3.6,4.2s-2.9,2.1-5.4,1.3c-2.5-0.8-4.1-2.7-3.6-4.2
					C188.5,291.6,190.9,291,193.4,291.8z"/>
			</g>
			<g>
				<path class="st17" d="M331.4,284.6c-1.2,2.3-1,4.8,0.5,5.5c1.4,0.7,3.6-0.6,4.7-2.9c1.2-2.3,1-4.8-0.5-5.5
					C334.7,281,332.5,282.2,331.4,284.6z"/>
				<path class="st17" d="M340.6,307.2c-2.6-0.2-4.6-1.7-4.4-3.3c0.1-1.6,2.4-2.7,5-2.5s4.6,1.7,4.4,3.3S343.2,307.4,340.6,307.2z"
					/>
				<path class="st17" d="M338.8,291.8c-2.5,0.8-4.1,2.7-3.6,4.2s2.9,2.1,5.4,1.3c2.5-0.8,4.1-2.7,3.6-4.2
					C343.6,291.6,341.2,291,338.8,291.8z"/>
			</g>
			<g id="Layer_3">
				<path class="st18" d="M206.2,276.3c0.5-0.1,1.1-0.2,1.7-0.1c7.1,0.6,14.4,0.6,14.4-5c0-9.9-25.8-6.5-25.8,3.1
					C197.2,278.1,200.3,277.8,206.2,276.3z"/>
				<path class="st18" d="M327.5,276.3c-0.5-0.1-1.1-0.2-1.7-0.1c-7.1,0.6-14.4,0.6-14.4-5c0-9.9,25.8-6.5,25.8,3.1
					C336.5,278.1,333.4,277.8,327.5,276.3z"/>
				<g>
					<g>
						<g>
							<path class="st19" d="M301.1,380.2c0,0-17.6,2.2-33.6,2.4c-16-0.1-33.6-2.4-33.6-2.4s-3.6,33.2,33.3,33.1c0.1,0,0.2,0,0.3,0
								c0.1,0,0.3,0,0.3,0C304.7,413.5,301.1,380.2,301.1,380.2z"/>
						</g>
						<g>
							<path class="st16" d="M301.1,380.2c0,0-17.6,2.2-33.6,2.4c-16.1-0.1-33.6-2.4-33.6-2.4s-0.2,1.6,0,4.2
								c6.7,2.6,17.3,4.7,33.7,4.6c16.4,0.1,27-2,33.7-4.6C301.3,381.9,301.1,380.2,301.1,380.2z"/>
						</g>
						<g>
							<path class="st20" d="M292,405.6c-5.4-4.4-13.1-7.7-24.3-7.9l0,0c-0.1,0-0.2,0-0.3,0c-0.1,0-0.2,0-0.3,0l0,0
								c-11.2,0.2-18.9,3.4-24.3,7.9c5,4.5,12.6,7.8,24.2,7.8c0.1,0,0.2,0,0.3,0c0.1,0,0.2,0,0.3,0C279.4,413.4,287,410.1,292,405.6
								z"/>
						</g>
					</g>
					<g>
						<path class="st15" d="M267.9,414.2h-0.1h-0.3h-0.3c-0.5,0-1,0-1.5,0h-0.3c-0.5,0-1,0-1.4-0.1h-0.2c-0.4,0-0.8-0.1-1.2-0.1
							h-0.3c-0.4,0-0.9-0.1-1.3-0.1h-0.3c-0.4,0-0.7-0.1-1.1-0.2h-0.2c-0.4-0.1-0.8-0.1-1.2-0.2l-0.4-0.1c-0.4-0.1-0.7-0.1-1.1-0.2
							c-0.1,0-0.1,0-0.2-0.1h-0.1c-0.3-0.1-0.6-0.1-0.8-0.2l0,0c-0.1,0-0.3-0.1-0.4-0.1c-0.3-0.1-0.6-0.2-1-0.3
							c-0.1,0-0.3-0.1-0.4-0.1h-0.1c-0.2-0.1-0.4-0.1-0.6-0.2c-0.2-0.1-0.4-0.1-0.7-0.2c-0.2-0.1-0.4-0.2-0.6-0.2
							c-0.2-0.1-0.4-0.1-0.5-0.2s-0.3-0.1-0.4-0.2c-0.3-0.1-0.6-0.3-1-0.4l-0.3-0.1c-0.2-0.1-0.4-0.2-0.6-0.3l0,0
							c-0.4-0.2-0.8-0.4-1.2-0.6l-0.1-0.1c-16.2-9.1-14.4-28.7-14.3-29.5c0-0.2,0.1-0.4,0.3-0.5s0.4-0.2,0.6-0.2h0.1
							c1.8,0.2,18.3,2.2,33.4,2.3c15.1-0.1,31.6-2.1,33.4-2.3h0.1c0.2,0,0.4,0,0.6,0.2c0.2,0.1,0.3,0.3,0.3,0.5
							c0.1,0.8,1.9,20.5-14.3,29.6h-0.1c-0.4,0.2-0.8,0.5-1.3,0.7c-0.2,0.1-0.4,0.2-0.6,0.3l-0.3,0.1c-0.3,0.1-0.6,0.3-1,0.4
							c-0.1,0.1-0.3,0.1-0.4,0.2c-0.2,0.1-0.4,0.1-0.5,0.2c-0.2,0.1-0.4,0.2-0.6,0.2c-0.2,0.1-0.4,0.2-0.7,0.2
							c-0.2,0.1-0.4,0.1-0.6,0.2h-0.1c-0.1,0-0.3,0.1-0.4,0.1c-0.3,0.1-0.6,0.2-1,0.3c-0.1,0-0.3,0.1-0.4,0.1
							c-0.3,0.1-0.6,0.1-0.8,0.2H279c-0.1,0-0.1,0-0.2,0.1c-0.4,0.1-0.7,0.2-1.1,0.2c-0.1,0-0.3,0.1-0.4,0.1
							c-0.4,0.1-0.8,0.1-1.2,0.2h-0.2c-0.4,0.1-0.7,0.1-1.1,0.2h-0.3c-0.4,0.1-0.9,0.1-1.3,0.1h-0.3c-0.4,0-0.8,0.1-1.2,0.1h-0.2
							l0,0l0,0c-0.5,0-1,0-1.4,0.1h-0.3C268.9,414.1,268.4,414.2,267.9,414.2z M267.5,412.6h0.3c0.5,0,1,0,1.5,0h0.3
							c0.5,0,0.9,0,1.4-0.1l0,0h0.2c0.4,0,0.8-0.1,1.2-0.1h0.3c0.4,0,0.9-0.1,1.3-0.1h0.3c0.4,0,0.7-0.1,1.1-0.1h0.2
							c0.4-0.1,0.8-0.1,1.1-0.2c0.1,0,0.3,0,0.4-0.1c0.4-0.1,0.7-0.1,1.1-0.2l0.3-0.1c0.3-0.1,0.5-0.1,0.8-0.2
							c0.2,0,0.3-0.1,0.4-0.1c0.3-0.1,0.6-0.2,0.9-0.3c0.1,0,0.2-0.1,0.4-0.1h0.1c0.2-0.1,0.4-0.1,0.6-0.2s0.4-0.1,0.6-0.2
							s0.4-0.1,0.6-0.2s0.3-0.1,0.5-0.2c0.1,0,0.2-0.1,0.4-0.1c0.3-0.1,0.6-0.3,0.9-0.4l0.2-0.1c0.2-0.1,0.4-0.2,0.6-0.3
							c0.4-0.2,0.8-0.4,1.2-0.6h0.1c13.7-7.7,13.8-23.5,13.6-27.2c-3.7,0.4-18.9,2.2-32.9,2.3c-14-0.1-29.2-1.8-32.9-2.3
							c-0.2,3.8-0.1,19.6,13.6,27.2h0.1c0.4,0.2,0.8,0.4,1.2,0.6c0.2,0.1,0.4,0.2,0.6,0.3l0.2,0.1c0.3,0.1,0.6,0.3,0.9,0.4
							c0.1,0.1,0.2,0.1,0.4,0.1c0.2,0.1,0.3,0.1,0.5,0.2s0.4,0.1,0.6,0.2c0.2,0.1,0.4,0.1,0.6,0.2c0.2,0.1,0.4,0.1,0.6,0.2h0.1
							c0.1,0,0.2,0.1,0.4,0.1c0.3,0.1,0.6,0.2,0.9,0.3c0.1,0,0.3,0.1,0.4,0.1l0,0c0.3,0.1,0.5,0.1,0.8,0.2h0.1c0.1,0,0.1,0,0.2,0
							c0.4,0.1,0.7,0.1,1.1,0.2l0.4,0.1c0.4,0.1,0.8,0.1,1.1,0.2h0.2c0.4,0.1,0.7,0.1,1.1,0.1h0.3c0.4,0,0.8,0.1,1.3,0.1h0.3
							c0.4,0,0.8,0.1,1.2,0.1h0.2c0.5,0,0.9,0,1.4,0.1h0.3c0.5,0,1,0,1.5,0L267.5,412.6z"/>
					</g>
				</g>
			</g>
		</g>
		<polygon class="st21" points="339,675 195,675 185,512 349,512 		"/>
		<polygon class="st22" points="267,734 195,675 339,675 		"/>
	</g>
	<g id="Layer_3_00000108308316798477681790000014770407170126817924_" class="st1">
	</g>
</g>
<g id="Layer_2">
	<g>
		<g>
			<path class="st9" d="M237.9,924l1.5-19.3l-37.8,0.1c0,0,1.9,17.3,1.9,21.9c0,0-2.3,10.9-6.4,17.6c-4.1,6.8,7.5,13.7,22.4,13.7
				c14.9,0,22.8-2.8,23.2-7.4C243.3,946.2,237.9,932,237.9,924z"/>
			<path class="st23" d="M256,989.3c-0.9-8.6-6.4-11.5-6.4-11.5c0-2-34.1,0-34.1,0s-34.1-2-34.1,0c0,0-5.4,2.9-6.4,11.5
				c-0.9,8.6-3.1,19,40.5,19S256.9,997.8,256,989.3z"/>
			<path class="st11" d="M215.5,1008.3c43.6,0,41.4-10.4,40.5-19c-0.7-6.8-4.2-10-5.6-11.1l-9.8,4.4c0,0,7.4,17.9-29.8,20.6
				c-37.2,2.7-35.8-13.9-35.8-13.9C174.1,997.8,171.9,1008.3,215.5,1008.3z"/>
			<path class="st24" d="M231.2,944.9c0,0,0.4-7.2-4.1-7.7c-4.5-0.4-14.9-0.4-18.6,0c-3.7,0.4-5,7.7-5,7.7s-7.7-0.4-9.5,5
				c-1.8,5.4-13.6,26.2-14.5,34.3c0,0,7.6,5,40,5s31.9-5.4,31.9-5.4s-8-27.8-8.7-33.1C242.1,945.5,231.2,944.9,231.2,944.9z"/>
			<path class="st11" d="M251.5,983.8c0,0-8-27.8-8.7-33.1c-1.3,40.5-63.3,33.5-63.3,33.5s7.6,5,40,5
				C251.9,989.3,251.5,983.8,251.5,983.8z"/>
			<g>
				<polygon class="st23" points="239.4,906.2 201.7,906.2 201.6,903.3 239.6,903.3 				"/>
			</g>
		</g>
		<g>
			<path class="st9" d="M290.5,950.6c0.4,4.6,8.2,7.4,23.2,7.4s26.5-6.9,22.4-13.7c-4.1-6.8-6.4-17.6-6.4-17.6
				c0-4.6,1.9-21.9,1.9-21.9l-37.8-0.1l1.5,19.3C295.3,932,289.9,946.2,290.5,950.6z"/>
			<path class="st23" d="M317.7,1008.3c43.6,0,41.4-10.4,40.5-19c-0.9-8.6-6.4-11.5-6.4-11.5c0-2-34.1,0-34.1,0s-34.1-2-34.1,0
				c0,0-5.4,2.9-6.4,11.5C276.3,997.8,274.1,1008.3,317.7,1008.3z"/>
			<path class="st11" d="M358.2,989.3c0,0,1.4,16.6-35.8,13.9c-37.2-2.7-29.8-20.6-29.8-20.6l-9.8-4.4c-1.5,1-4.9,4.3-5.6,11.1
				c-0.9,8.6-3.1,19,40.5,19S359,997.8,358.2,989.3z"/>
			<path class="st24" d="M290.5,950.7c-0.6,5.3-8.7,33.1-8.7,33.1s-0.4,5.4,31.9,5.4s40-5,40-5c-0.9-8.1-12.7-28.9-14.5-34.3
				c-1.8-5.4-9.5-5-9.5-5s-1.4-7.3-5-7.7c-3.7-0.4-14.1-0.4-18.6,0c-4.5,0.5-4.1,7.7-4.1,7.7S291.1,945.5,290.5,950.7z"/>
			<path class="st11" d="M313.6,989.3c32.4,0,40-5,40-5s-62,7-63.3-33.5c-0.6,5.3-8.7,33.1-8.7,33.1S281.3,989.3,313.6,989.3z"/>
			<g>
				<polygon class="st23" points="293.6,903.3 331.6,903.3 331.5,906.2 293.8,906.2 				"/>
			</g>
		</g>
	</g>
	<path class="st25" d="M268.1,673h-4.1h-69.6c-3.6,0-6.6,3-6.4,6.7l9.6,220.2c0.1,2,0.8,3.9,2,4.8c10.8,8.5,40.4,11.5,52.5,0
		c1-1,1.7-2.7,1.8-4.6l7-120.5c0-0.7,0.1-1.6,0.1-2.4c0.4-5.2,6.7-7.9,10.5-4.4c0,0,0.1,0.1,0.1,0.1l0,0c1.4,1.3,2.4,3.7,2.4,6.3
		l4,121c0.1,1.9,0.7,3.6,1.8,4.6c12.2,11.5,41.7,8.6,52.5,0c1.2-0.9,1.9-2.8,2-4.8l10.5-220.2c0.2-3.7-2.7-6.7-6.4-6.7H268.1z"/>
	<path class="st26" d="M188.2,479.2c0,0-30.2,6-46.1,66.2l42.9,18.3l11.7-17.4L188.2,479.2z"/>
	<path class="st26" d="M345.1,479.2c0,0,30.2,6,46.1,66.2l-42.9,18.3l-11.7-17.4L345.1,479.2z"/>
	<path class="st27" d="M346.7,479c-17.3-8.2-28.3-12.7-45.5-13.5c-5.8,13.5-18.4,21.8-33.6,21.9c-15.2-0.2-28.6-8.5-34.4-21.9
		c-18.4,1.8-28.7,6.1-44.9,13.7l-4.5,181.9l-1.5,16.6c49.5,20.5,127.9,18.1,169.3,0l-1.7-15.7L346.7,479z"/>
	<path class="st26" d="M233.2,465.5c14.6,28.7,52.2,29.9,68.4,0l7.8,0.6c-11.8,39.6-67.8,43.8-85,0.4L233.2,465.5z"/>
</g>
<g id="Layer_4_00000176028470734501338180000002771422648659934876_">
</g>
</svg>
