<?xml version="1.0" encoding="utf-8"?>
<!-- Generator: Adobe Illustrator 26.1.0, SVG Export Plug-In . SVG Version: 6.00 Build 0)  -->
<svg version="1.1" xmlns="http://www.w3.org/2000/svg" xmlns:xlink="http://www.w3.org/1999/xlink" x="0px" y="0px"
	 viewBox="0 0 578 1024" style="enable-background:new 0 0 578 1024;" xml:space="preserve">
<style type="text/css">
	.st0{display:none;fill:#333333;}
	.st1{fill:#333333;}
	.st2{display:none;}
	.st3{fill:#754C29;}
	.st4{display:inline;fill:#F15A29;}
	.st5{display:inline;fill:#F7941D;}
	.st6{display:inline;}
	.st7{fill:#E6E6E6;}
	.st8{fill:#DD3B10;}
	.st9{opacity:0.22;fill:#231F20;}
	.st10{fill:#F7941D;}
	.st11{display:inline;fill:none;}
	.st12{display:inline;fill:#333333;}
	.st13{display:inline;fill:#FBD3A8;}
	.st14{display:inline;opacity:0.35;fill:#F8A364;}
	.st15{display:inline;fill:#FC9EBB;}
	.st16{display:inline;fill:#EF709E;}
	.st17{display:inline;fill:#FBBD89;}
	.st18{display:inline;fill:#603813;}
	.st19{display:inline;fill:#F8A364;}
	.st20{display:inline;fill:#4D4E4E;}
	.st21{display:inline;fill:#FFFFFF;}
	.st22{display:inline;fill:#EF8971;}
	.st23{fill:#FBD3A8;}
	.st24{fill:#FC9EBB;}
	.st25{fill:#EF709E;}
	.st26{fill:#FBBD89;}
	.st27{fill:#603813;}
	.st28{fill:#F8A364;}
	.st29{fill:#4D4E4E;}
	.st30{fill:#FFFFFF;}
	.st31{fill:#EF8971;}
	.st32{fill:#BE1717;}
	.st33{fill:#FF2929;}
</style>
<g id="Layer_2">
	<path class="st0" d="M230.9,160.7c-109-1.6-75,126.3-102.4,186.9c-67.9-156-54.2-268,72.3-282.9c61.7-106.7,149,33.5,242,4.6
		c-1.2,7.9-5.6,14-11.1,19.7c-0.3,0.3-0.1,0.9,0.4,0.8c10.3-1,19.1-5.2,25.9-12.9c0,12.1-5.9,20.5-16.4,26c-0.4,0.2-0.3,0.9,0.2,0.9
		c8.1,0.5,15.8-1.6,22.9-6.8c-1.2,7-5.7,11.9-11,15.9c-0.3,0.3-0.2,0.8,0.2,0.8c32.2,5.8,42.7,27.6,32.6,60.6
		c-10.3,56.5-22.9,105.6-79.8,172.7c0.4-41.9-1-80.9-7.5-112c-0.7-3.4-3.6-5.9-7.1-6.1c-78.3-4.4-127.3-26.1-154.9-64.9
		C235.6,162,233.3,160.8,230.9,160.7z"/>
	<path class="st0" d="M417.7,123.4c9.1,3.1,17.1,3,23.2-2.1c-8.5-7.7-23.4-15.6-39.7-23.6c19.9-7.3,30.6-25,34.8-50.1
		c-17.3,16.2-34.6,26-51.7,25.7l8.7-25.2c-11.3,7.8-22,13.8-31,14.4c6.4-7.9,10.1-17.7,11.7-29c-39.8,31.7-81.3,22.8-133.8-1.3
		c-25.6-7.7-44.7,9.1-60.8,37.7c-0.8-13.1,1-26.8,3.7-40.8c-8,9.6-13.6,20.7-14.1,34.8c-3-4.2-5-12.2-7-20.3
		c-4.9,11.1-3.8,23.1,1.6,35.6c-49.4,24.6-77.9,104.8-58.3,156.2c1.2-3.8,2-6.8,4-8.5c1,33.1,4,65.2,10.8,95.6l17.1,21.5
		c-3.5-9.3-6.3-19.2-8.3-29.9l7.8,1.8c-1.1-47.4,5.9-106,40.7-137.9c1,10.7,5.4,20.3,10.2,27.1c3-12.8,6.1-22.9,10.4-29.8
		c28.2,23.4,57.3,36.6,87.8,32.4l-36.8-24.1c33.7,13.9,69.6,16.5,107.5,8.7c-15.2-5-27.1-15.3-37.6-28.1
		c73.5,6.9,85.9,82.6,85.1,150.2l6.9-1c1.1-3.6,2.2-7.7,3.2-12.3c-1,7.9-2.3,15.5-4.1,22.7l19.1-31.3c6.5-36.9,8.3-72.3,2.9-105.1
		c3.8,3.8,6.6,9.9,9.1,17C450.6,173.3,441.2,146.6,417.7,123.4z"/>
	<path class="st0" d="M474.2,200.1c-6.7-19.1-20.9-37.3-35.1-55.4c-12.6-50.9-38.2-59.1-64.8-63.9c5.2-6.2,6.2-15.8,9.2-26.8
		c-5.5,9.6-9.4,17.3-17.5,22.2l4.4-31c-3.4,11.8-7.5,22.3-13.6,29.4c-48.2-59.3-115.5-43.9-194.4,4.9
		c-43.5,26.3-84.2,47.9-112.5,48.3c10.2,8.6,22.2,13.5,35.1,16.5c-4.9,6.6-14.3,8.8-25.6,9.1l26.2,5.7c-7.3,5.1-20.1,9.3-35.6,13.1
		c5.3,4.4,14.9,5.2,26.2,4.5c-17.5,14.1-21.8,31.2-20.7,49.6c10.6-14.2,20.7-25.8,29-27.4c-19.7,28.6-25.3,60.3,17.5,114.7
		c0.3-3.1,0.9-6.1,1.9-9c1.9-5.3,5.7-9.8,10.9-12.1c3.6-1.5,7-1.7,10.2-1.2c0,0,0,0,0,0l0.6,6.7c0.2,2.5,0.4,4.9,0.6,7.2
		c0.1,0.6,0.1,1.3,0.2,1.9l-0.6-0.1c-0.1,0-0.1,0-0.2,0c0,0.2,0,0.3,0,0.5c0.2,0,0.5,0,0.7,0c2,18.6,5.9,31.6,9.9,40.6
		c0.5,1.1,1,2.1,1.5,3.1c0.3,0.7,0.7,1.3,1,2c10.1-73.5,17.4-136.6,74.6-147.8l-9.3,14.4c37.3,4.5,68.8-7.6,95.5-39.8
		c0.4-0.4,1.1-0.2,1.1,0.3c0.4,9.3-5,14.4-10.8,21.9c14.2-2.2,25.3-7.2,32-16c0.3-0.4,1-0.2,1,0.4c-1.3,10.8-6.6,15.8-14.1,24.7
		c16.4-7,29.3-12.4,38.1-26.1v0.7c0,14.2,4.5,27.9,12.4,39.6c13.5,19.9,23.3,40.8,25.9,59.4l1.3-14.9c6.7,21.5,11.1,53.8,13.2,71.3
		c0.3,2.2,0.5,4.1,0.7,5.8c0,0.3,0.1,0.6,0.1,0.9c0.3,2.6,0.5,4.4,0.5,5.2l1.7-2.1c0.6-1,1.4-2.3,2.2-3.9c1.2-2.2,2.6-4.9,4-8
		c3.7-7.9,7.8-18.3,10.2-29.8c0.1-0.3,0.1-0.6,0.2-0.9c0-0.2,0.1-0.4,0.1-0.6c1-5.2,1.7-10.6,1.8-16.1c0.5,0.2,1,0.4,1.6,0.6
		c5.2,2.2,9,6.8,10.9,12.1c0.6,1.7,1.1,3.5,1.4,5.4l16.1-27.7v11.6c13.7-20.3,20.3-30.7,17.1-63.1l2.9,23.4
		C479.3,239.6,480,219.3,474.2,200.1z"/>
	<path class="st1" d="M456.1,306.7c-3-15.7-4.3-31.8-4.2-47.8c0.9-151.5-84.6-228.1-234.4-178.7c-82.1,6.9-125.1,76.3-132.3,198
		c-0.7,11.8-2.4,23.4-4.9,35c-14.8,69.2-9.1,122.3,36.6,143.9l-12.7-23c15.4,19.3,36.6,29.8,63.6,31.2l-12-25.7
		c12.4,16.2,34.2,20.9,65.9,23.2h12.3c1.4-6,2.5-13.4,3-22.5c-54.1-8.3-86.9-35.9-102.9-78.9c-25.1-1.1-41-34.8-33.1-56.7
		c1.9-5.4,5.8-10,11-12.2c0.3-0.1,0.6-0.2,0.9-0.4l5.6,14.2l0.4,1l0.3,0.7l5.4,13.7l1.4,3.6c3.2,0,5.8-2.4,6.1-5.5
		c0.3-3.3,0.7-6.7,1.2-10c0.1-0.5,0.1-1,0.2-1.4c0.1-0.6,0.2-1.2,0.3-1.9c0.5-3,1-5.9,1.6-8.9c9.8-47.2,36.3-93.9,67.9-121.1
		c3.1,33.5,14.1,43.3,51.3,63.7l-6.3-39.2c20.8,36.2,42.1,55,81,60c-8.9-14.6-14.3-28.8-18.6-42.9c39.5,22.8,76.8,56.8,89.6,89.4
		c0.2,0.6,0.5,1.2,0.7,1.8c1.3,3.5,2.3,7,2.9,10.4c0.6,3.2,3.4,5.6,6.6,5.6l2.7-6.8l4.1-10.2l0.3-0.8l0.3-0.8l5.7-14.2
		c5.2,2.3,9.1,6.8,11,12.2c7.7,21.3-7.2,53.9-31.3,56.5c-16.2,43.8-49.9,71.7-105.9,79.5c0.5,8.8,1.6,16.1,3,22H317
		c14-0.3,27.1-3.6,37.4-7.6l-4.9,14.4c14,0.2,23-8.9,33-21.5c1.1,6.5-0.4,13.8-3.3,21.5C473.2,442.3,471.4,386.1,456.1,306.7z"/>
	
		<ellipse transform="matrix(0.7562 -0.6543 0.6543 0.7562 -40.6067 101.2433)" class="st1" cx="115.6" cy="105.1" rx="74.2" ry="52.6"/>
	
		<ellipse transform="matrix(0.6543 -0.7562 0.7562 0.6543 66.9181 356.6256)" class="st1" cx="423.6" cy="105.1" rx="52.6" ry="74.2"/>
</g>
<g id="Layer_5" class="st2">
</g>
<g id="Layer_1" class="st2">
	<path class="st3" d="M279.1,709.2h-4.8h-87.1l8.1,175.3c0.1,1.6,1,3,2.4,3.7c12.8,6.6,48,8.9,62.5,0c1.2-0.8,2-2.1,2.1-3.5
		l5.4-101.5c0.1-2,1.2-3.8,3-4.9l0.1-0.1c3.8-2.2,8.4-2.2,12.2,0.1l0,0c1.7,1,2.8,2.8,2.9,4.8l5.4,101.6c0.1,1.4,0.9,2.8,2.1,3.5
		c14.5,8.9,49.7,6.6,62.5,0c1.4-0.7,2.3-2.1,2.4-3.7l8.1-175.3H279.1z"/>
	<g>
		<path class="st4" d="M382.9,497.3c-6.2-12.6-17.1-22.2-30.5-26.5l-40-13.2c-6.9,15.8-14.4,25.6-32.3,25.8
			c-17.9-0.2-25.2-10-32.1-25.8l-40.2,13.2c-13.3,4.4-24.3,13.9-30.5,26.5l-28.6,58.5l37.5,14.7l14,136.7h75.9h7.8H360l13.3-136.7
			l38.2-14.7L382.9,497.3z"/>
		<path class="st5" d="M377.4,707.3c0,0-3.2-44.3-4.1-136.7c-27.4-0.3-25-48.9-26.3-101.5l-13.2-4.1c2.1,49.3-16,75.2-54,78.1
			c-38-2.8-56.1-28.8-54-78.1l-13.2,4.6c-1.3,52.6,1.1,100.7-26.3,101c-0.9,92.5-5.3,136.7-5.3,136.7
			C239.4,731.4,328.7,728.5,377.4,707.3z"/>
	</g>
	<g>
		<g class="st6">
			<path class="st7" d="M236.1,923.3l1.4-18.5l-36.2,0.1c0,0,1.8,16.6,1.8,21c0,0-2.2,10.4-6.1,16.9c-3.9,6.5,7.2,13.1,21.5,13.1
				c14.3,0,21.8-2.7,22.2-7.1C241.2,944.6,236.1,931,236.1,923.3z"/>
			<path class="st8" d="M253.4,985.8c-0.9-8.2-6.1-11-6.1-11c0-1.9-32.7,0-32.7,0s-32.7-1.9-32.7,0c0,0-5.2,2.8-6.1,11
				c-0.9,8.2-3,18.2,38.8,18.2C256.4,1004,254.3,994,253.4,985.8z"/>
			<path class="st9" d="M214.6,1004c41.8,0,39.7-10,38.8-18.2c-0.7-6.5-4-9.6-5.4-10.6l-9.4,4.2c0,0,7.1,17.1-28.5,19.7
				c-35.6,2.6-34.3-13.3-34.3-13.3C175,994,172.8,1004,214.6,1004z"/>
			<path class="st10" d="M229.6,943.3c0,0,0.4-6.9-3.9-7.4c-4.3-0.4-14.3-0.4-17.8,0c-3.5,0.4-4.8,7.4-4.8,7.4s-7.4-0.4-9.1,4.8
				c-1.7,5.2-13,25.1-13.9,32.9c0,0,7.3,4.8,38.3,4.8c31,0,30.6-5.2,30.6-5.2s-7.7-26.6-8.3-31.7
				C240.1,943.9,229.6,943.3,229.6,943.3z"/>
			<path class="st9" d="M249.1,980.6c0,0-7.7-26.6-8.3-31.7c-1.2,38.8-60.6,32.1-60.6,32.1s7.3,4.8,38.3,4.8
				C249.5,985.8,249.1,980.6,249.1,980.6z"/>
			<g>
				<polygon class="st8" points="237.5,906.3 201.4,906.3 201.3,903.5 237.7,903.5 				"/>
			</g>
		</g>
		<g class="st6">
			<path class="st7" d="M297.2,923.3l-1.4-18.5L332,905c0,0-1.8,16.6-1.8,21c0,0,2.2,10.4,6.1,16.9c3.9,6.5-7.2,13.1-21.5,13.1
				c-14.3,0-21.8-2.7-22.2-7.1C292,944.6,297.2,931,297.2,923.3z"/>
			<path class="st8" d="M279.8,985.8c0.9-8.2,6.1-11,6.1-11c0-1.9,32.7,0,32.7,0s32.7-1.9,32.7,0c0,0,5.2,2.8,6.1,11
				c0.9,8.2,3,18.2-38.8,18.2C276.8,1004,279,994,279.8,985.8z"/>
			<path class="st9" d="M318.6,1004c-41.8,0-39.7-10-38.8-18.2c0.7-6.5,4-9.6,5.4-10.6l9.4,4.2c0,0-7.1,17.1,28.5,19.7
				c35.6,2.6,34.3-13.3,34.3-13.3C358.3,994,360.4,1004,318.6,1004z"/>
			<path class="st10" d="M303.7,943.3c0,0-0.4-6.9,3.9-7.4c4.3-0.4,14.3-0.4,17.8,0c3.5,0.4,4.8,7.4,4.8,7.4s7.4-0.4,9.1,4.8
				c1.7,5.2,13,25.1,13.9,32.9c0,0-7.3,4.8-38.3,4.8c-31,0-30.6-5.2-30.6-5.2s7.7-26.6,8.3-31.7
				C293.1,943.9,303.7,943.3,303.7,943.3z"/>
			<path class="st9" d="M284.2,980.6c0,0,7.7-26.6,8.3-31.7c1.2,38.8,60.6,32.1,60.6,32.1s-7.3,4.8-38.3,4.8
				C283.7,985.8,284.2,980.6,284.2,980.6z"/>
			<g>
				<polygon class="st8" points="295.7,906.3 331.8,906.3 332,903.5 295.6,903.5 				"/>
			</g>
		</g>
	</g>
	<polygon class="st11" points="189.9,734 267,734 267,734 	"/>
	<path class="st12" d="M383.5,718.3c-1.1-0.1-2,0.9-2.6,2.5c1-0.3,2-0.6,2.9-0.9C383.8,718.9,383.7,718.3,383.5,718.3z"/>
	<path class="st13" d="M302.6,470.3c0.1,0.2,0.1,0.4,0.2,0.5C302.7,470.6,302.6,470.5,302.6,470.3z"/>
	<path class="st13" d="M231.6,471.5c0.2-0.6,0.4-1.1,0.6-1.7C232,470.4,231.8,470.9,231.6,471.5z"/>
	<path class="st13" d="M301.8,467.9c0.1,0.2,0.1,0.4,0.2,0.5C301.9,468.3,301.9,468.1,301.8,467.9z"/>
	<path class="st13" d="M232.3,469.4c0.2-0.5,0.3-1,0.4-1.5C232.6,468.4,232.4,468.9,232.3,469.4z"/>
	<path class="st13" d="M301.2,465.4c0,0.1,0.1,0.3,0.1,0.4C301.2,465.6,301.2,465.5,301.2,465.4z"/>
	<path class="st13" d="M296.5,440.7l0.2,3.7c-9,13.2-52.4,12.7-59.1-0.6l0.3-3.4c-0.3,0-0.6-0.1-0.9-0.1c-0.5,9-1.6,16.4-3,22.4
		c0,0,0,0,0,0h66.4c0,0,0,0,0,0c-1.4-5.9-2.5-13.2-3-22c0,0,0,0,0,0C297.2,440.7,296.8,440.7,296.5,440.7z"/>
	<path class="st13" d="M231.4,471.9c-0.2,0.5-0.3,0.9-0.5,1.4c0,0,0,0,0,0C231.1,472.8,231.3,472.4,231.4,471.9z"/>
	<path class="st13" d="M232.9,467.3c0.2-0.6,0.3-1.2,0.5-1.8C233.2,466.1,233,466.7,232.9,467.3z"/>
	<path class="st13" d="M233.5,464.8c0.1-0.5,0.3-1.1,0.4-1.6C233.8,463.7,233.7,464.3,233.5,464.8z"/>
	<path class="st13" d="M291.7,441.3c-0.7,0.1-1.3,0.1-2,0.2c-1.5,0.2-3.1,0.3-4.6,0.4c-0.4,0-0.9,0.1-1.3,0.1
		c-4.4,0.3-8.8,0.6-13.4,0.7h-3.6c-10.2-0.2-19.8-1.1-28.8-2.4l-0.3,3.4c6.7,13.3,50.1,13.8,59.1,0.6l-0.2-3.7
		c-0.4,0-0.7,0.1-1.1,0.1C294.2,441,293,441.2,291.7,441.3z"/>
	<path class="st14" d="M291.7,441.3c-0.7,0.1-1.3,0.1-2,0.2c-1.5,0.2-3.1,0.3-4.6,0.4c-0.4,0-0.9,0.1-1.3,0.1
		c-4.4,0.3-8.8,0.6-13.4,0.7h-3.6c-10.2-0.2-19.8-1.1-28.8-2.4l-0.3,3.4c6.7,13.3,50.1,13.8,59.1,0.6l-0.2-3.7
		c-0.4,0-0.7,0.1-1.1,0.1C294.2,441,293,441.2,291.7,441.3z"/>
	<path class="st13" d="M378.4,701.7c-1.1,1.4-2.2,2.8-3.3,4.1l-1,4.1c-0.3,1.2-0.5,2.5-0.5,3.7c-0.2,5.3-0.7,19.8,2.1,20.1
		c2.4,0.3,3.3-8.4,5.2-12.9c-1.8,0.6-3.7,1.2-5.7,1.7C378,715.1,379.5,708,378.4,701.7z"/>
	<path class="st13" d="M380.5,752.8c-0.1,0.6,0.6,1.1,1.2,0.8c2.1-0.9,4.2-3.9,6.6-7.5c5.9,0.9,8.7-2,9.9-7.1l6.1-5.9
		c1.5-1.5,2.5-3.4,2.7-5.5c0.4-4.6-0.5-10.2-1.7-16.6c-6.3,3.2-13.4,6.2-21.4,8.9C383.8,726,381.1,747.7,380.5,752.8z"/>
	<path class="st13" d="M401.2,687c0-5.4-0.2-10.7-0.8-16.1c-2.5-23.9-17.7-118.1-28.7-164c-0.4-1.7-1-3.2-1.8-4.7
		c0.7,1.7,1.1,3.5,1.1,5.3c0,8.7-8.7,16.7-23.1,22.9l-0.9,14.7c13.2,38.7,25.6,87.6,30.7,127.7c0.7,5.7,1.1,11.5,1.1,17.3l-3.7,15.6
		c1.1-1.3,2.2-2.7,3.3-4.1c1.1,6.4-0.4,13.5-3.2,20.9c1.9-0.6,3.8-1.1,5.7-1.7c0.7-1.6,1.5-2.7,2.6-2.5c0.2,0,0.3,0.6,0.3,1.6
		c8-2.7,15.1-5.7,21.4-8.9C403.8,703.8,402,695.7,401.2,687L401.2,687z"/>
	<path class="st13" d="M126.8,727.6c0.2,2.1,1.1,4,2.7,5.5l6.1,5.9c1.2,5,4,8,9.9,7.1c2.3,3.6,4.5,6.7,6.6,7.5
		c0.6,0.3,1.3-0.2,1.2-0.8c-0.8-5.9-4.3-34.3-3-34.5c4.2-0.5,4.5,15.8,7.9,15.4c2.2-0.3,2.3-9.7,2.2-16.1
		c-11.5-1.6-21.9-5.1-31-10.4C127.7,715.1,126.3,722.1,126.8,727.6z"/>
	<path class="st13" d="M159.6,709.8l-4.6-19.7c0-5.8,0.3-11.6,1.1-17.3c5.2-40.3,17.7-89.6,31-128.5l-0.9-13.9
		c-14.5-6.3-23.1-14.3-23.1-22.9c0-2.5,0.7-5,2.1-7.3c-1.5,2-2.6,4.3-3.2,6.8c-11,45.9-26.1,140.1-28.7,164
		c-0.6,5.3-0.8,10.7-0.8,16.1v0c-0.7,7.1-2,13.9-3.3,20.1c9.1,5.3,19.4,8.8,31,10.4c0-1.6-0.1-3-0.1-4
		C160,712.3,159.9,711.1,159.6,709.8z"/>
	<path class="st15" d="M343.1,532.4c-19,7.1-46,11.6-76.1,11.6c-30.2,0-57.4-4.5-76.4-11.7c-0.8,3.4-1.8,6.8-3,10.2
		c-0.2,0.6-0.4,1.3-0.6,1.9l8,130.7h144l8-129.9c-0.3-0.9-0.6-1.8-0.9-2.7C344.9,539.1,343.9,535.8,343.1,532.4z"/>
	<path class="st15" d="M346.1,542.4c0.3,0.9,0.6,1.8,0.9,2.7l0.9-14.7c-1.5,0.7-3.1,1.3-4.8,1.9
		C343.9,535.8,344.9,539.1,346.1,542.4z"/>
	<path class="st15" d="M190.6,532.3c-1.6-0.6-3.1-1.2-4.5-1.8l0.9,13.9c0.2-0.6,0.4-1.3,0.6-1.9
		C188.8,539.1,189.8,535.7,190.6,532.3z"/>
	<path class="st13" d="M301.6,482.5c-15.9,17.2-55,13-68.1,1.3c-2.9-2.6-3.9-6.6-2.6-10.2c0-0.1,0.1-0.2,0.1-0.3
		c-33.3,4.3-58.6,14.5-65.9,26.9c2.2-2.9,5.2-5.2,8.8-6.5c10.3-3.6,20.9,4.5,20.1,15.4l-0.2,2.9h146.2l-0.2-2.9
		c-0.8-10.9,9.8-19,20.1-15.4c4.4,1.5,7.9,4.6,10.1,8.6c-5.5-13.3-31.4-24.3-66.3-28.9C304.6,476.5,303.8,480,301.6,482.5z"/>
	<path class="st13" d="M231,473.3C231,473.3,231,473.3,231,473.3c0,0.1-0.1,0.2-0.1,0.3C230.9,473.4,230.9,473.3,231,473.3z"/>
	<path class="st13" d="M359.8,493.7c-10.3-3.6-20.9,4.5-20.1,15.4l0.2,2.9h9.1l-1.1,18.4c14.5-6.3,23.1-14.3,23.1-22.9
		c0-1.8-0.4-3.5-1.1-5.3C367.7,498.3,364.2,495.2,359.8,493.7z"/>
	<path class="st13" d="M193.7,512l0.2-2.9c0.8-10.9-9.8-19-20.1-15.4c-3.6,1.3-6.6,3.5-8.8,6.5c-1.4,2.4-2.1,4.8-2.1,7.3
		c0,8.7,8.7,16.7,23.1,22.9L185,512H193.7z"/>
	<path class="st13" d="M190.6,532.3c19,7.2,46.2,11.7,76.4,11.7c30,0,57.1-4.5,76.1-11.6c-1.5-6.2-2.5-12.4-3-18.8l-0.1-1.6H193.7
		l-0.1,1.6C193.1,519.9,192.1,526.2,190.6,532.3z"/>
	<path class="st13" d="M339.9,512l0.1,1.6c0.5,6.3,1.5,12.6,3,18.8c1.7-0.6,3.3-1.3,4.8-1.9L349,512H339.9z"/>
	<path class="st13" d="M193.6,513.6l0.1-1.6H185l1.1,18.4c1.4,0.6,2.9,1.2,4.5,1.8C192.1,526.2,193.1,519.9,193.6,513.6z"/>
	<path class="st13" d="M204.7,938.3c3.7-3.3,7.8-5.3,12.3-5.3c7,0,12.6,4.5,17,10.8L267,734h-77.1
		C195.8,816.5,203.1,916.3,204.7,938.3z"/>
	<path class="st13" d="M205,942.8c0,0-0.1-1.6-0.3-4.4C191.8,949.6,184,975.6,184,982c0,8.3,14.1,15,31.5,15s31.5-6.7,31.5-15
		c0-5.5-4-25.6-13-38.2l0,0.2L205,942.8z"/>
	<path class="st13" d="M217,933c-4.5,0-8.6,2-12.3,5.3c0.2,2.9,0.3,4.4,0.3,4.4l29,1.2l0-0.2C229.6,937.5,224,933,217,933z"/>
	<path class="st13" d="M267,734l32.2,209.8c4.4-6.3,10.1-10.8,17-10.8c4.5,0,8.6,2,12.3,5.3c1.6-22,8.9-121.8,14.8-204.3L267,734
		L267,734z"/>
	<path class="st13" d="M299.2,944l0-0.2c-8.9,12.7-13,32.7-13,38.2c0,8.3,14.1,15,31.5,15c17.4,0,31.5-6.7,31.5-15
		c0-6.4-7.8-32.4-20.7-43.7c-0.2,2.9-0.3,4.4-0.3,4.4L299.2,944z"/>
	<path class="st13" d="M299.2,943.8l0,0.2l29-1.2c0,0,0.1-1.6,0.3-4.4c-3.7-3.3-7.8-5.3-12.3-5.3C309.3,933,303.6,937.5,299.2,943.8
		z"/>
	<path class="st13" d="M289,715.9L267,734h76.3l-1.6-22.3c-8.1,2.3-17.4,4-27.1,4.3H289z"/>
	<path class="st13" d="M245,715.9h-23.1c-11.3-0.8-21.4-2-30.1-3.8l-1.9,21.9l77.1,0L245,715.9z"/>
	<path class="st13" d="M289,715.9h25.6c9.7-0.2,18.9-1.9,27.1-4.3L339,675L289,715.9z"/>
	<path class="st13" d="M245,715.9L195,675l-3.2,37.1c8.8,1.9,18.8,3,30.1,3.8H245z"/>
	<polygon class="st13" points="267,734 343.3,734 267,734 	"/>
	<rect x="267" y="734" transform="matrix(0.7071 -0.7071 0.7071 0.7071 -440.8139 403.7811)" class="st16" width="0" height="0"/>
	<polygon class="st16" points="267,734 267,734 267,734 	"/>
	<polygon class="st16" points="267,734 267,734 267,734 267,734 289,715.9 245,715.9 	"/>
	<polygon class="st16" points="245,715.9 289,715.9 339,675 195,675 	"/>
	<rect x="267" y="734" class="st16" width="0" height="0"/>
	<path class="st13" d="M126.6,347.5c-9.1-1.9-15.3-15.3-15.4-26.1c0-2.6,0.2-5.2,1-7.8c0.9-2.8,3-5.3,5.8-6.6
		c1.7-0.8,3.4-1.2,5.2-1.3c-0.3-4.6-0.5-9.3-0.6-14.1c-3.2-0.5-6.7-0.3-10.2,1.2c-5.2,2.2-9.1,6.8-11,12.2
		c-7.9,21.8,7.9,55.4,33,56.5c-1.6-4.3-3-8.8-4.3-13.4L126.6,347.5z"/>
	<path class="st17" d="M118.6,308.6c-2.5,0.9-4.5,2.8-5.6,5.3c-1.1,2.5-1.6,5.3-1.8,8.2c0-0.2,0-0.5,0-0.7
		c0.1,10.8,6.3,24.2,15.4,26.1l3.4,0.6c-3.4-12.4-5.6-25.8-6.7-40.2C121.7,307.9,120.1,308,118.6,308.6z"/>
	<path class="st18" d="M112.2,313.6c-0.9,2.5-1.1,5.2-1,7.8c0-8.2,3.5-15,12.1-14c0-0.6-0.1-1.2-0.1-1.8c-1.8,0.2-3.5,0.5-5.2,1.3
		C115.2,308.3,113.1,310.8,112.2,313.6z"/>
	<path class="st18" d="M113,313.9c1.1-2.5,3.2-4.5,5.6-5.3c1.5-0.5,3.1-0.7,4.7-0.7c0-0.2,0-0.3,0-0.5c-8.6-1-12.1,5.7-12.1,14
		c0,0.2,0,0.5,0,0.7C111.4,319.3,111.9,316.4,113,313.9z"/>
	<path class="st13" d="M419.6,308.4c1.7,1.4,2.9,3.2,3.6,5.2c0.9,2.5,1.1,5.2,1,7.8c0,8.5-3.9,18.7-10,23.5c-1.4,5.2-3,10.2-4.9,15
		c20.2-7,31.8-35.6,24.8-54.9c-1.9-5.4-5.8-9.9-11-12.2c-1.1-0.5-2.2-0.8-3.3-1.1C419.9,297.4,419.9,303,419.6,308.4z"/>
	<path class="st17" d="M424.2,321.4c0,0.2,0,0.5,0,0.7c-0.2-2.8-0.6-5.6-1.8-8.2c-0.7-1.5-1.6-2.8-2.8-3.7
		c-0.7,12.3-2.5,23.9-5.4,34.7C420.3,340,424.1,329.9,424.2,321.4z"/>
	<path class="st18" d="M424.2,321.4c0-2.6-0.2-5.2-1-7.8c-0.6-2-1.9-3.8-3.6-5.2c0,0.2,0,0.5,0,0.7
		C422.8,311.6,424.2,316.2,424.2,321.4z"/>
	<path class="st18" d="M419.6,309.1c0,0.3,0,0.7,0,1c1.2,1,2.2,2.3,2.8,3.7c1.1,2.5,1.6,5.3,1.8,8.2c0-0.2,0-0.5,0-0.7
		C424.2,316.2,422.8,311.6,419.6,309.1z"/>
	<path class="st13" d="M419.1,278.8c-1.3-15.6-4-32.1-8.3-49.4C388,138,330.9,118.7,276,115c-7.2-0.5-14.3-0.4-21.3,0.3
		c-69.3,6.2-123.6,62-130.3,131.3c-0.3,3-0.5,6-0.8,8.9c4.3-1.5,9-2.4,14.1-2.9C230,222.2,352.5,195.2,419.1,278.8z"/>
	<path class="st13" d="M122.6,291.6c5.1,0.8,9.6,3.6,13,5.8v64.1c-0.4,0-0.9,0-1.3-0.1c15.9,42.9,48.7,70.5,102.8,78.7
		c0,0,0,0,0-0.1c0.1-1.2,0.1-2.4,0.2-3.7c0,0,0,0,0-0.1c0-1.2,0.1-2.5,0.1-3.8c0-0.3,0-0.6,0-1c0-1,0-2,0-3.1c0-1.4,0-2.8,0-4.3
		h27.9h4.2h27.9c0,1.5,0,2.9,0,4.4c0,0.4,0,0.7,0,1.1c0,1,0,2.1,0,3c0,0.3,0,0.7,0,1c0,1,0,2,0.1,3c0,0.1,0,0.2,0,0.3
		c0,1.2,0.1,2.3,0.2,3.4c57-7.9,94.6-36.6,111.8-80.7c-3,1-6.1,1.6-9.4,1.6v-64.1c4.8-3.2,11.9-7.4,20-5.7
		c-0.1-4.2-0.4-8.5-0.7-12.9c-66.5-83.7-189.1-56.6-281.3-26.2c-5.1,0.4-9.8,1.4-14.1,2.9C122.7,268,122.3,280.1,122.6,291.6z
		 M374.8,359.7c0,11.3-9.1,20.4-20.4,20.4c-11.3,0-20.4-9.1-20.4-20.4c0-11.3,9.1-20.4,20.4-20.4
		C365.6,339.3,374.8,348.4,374.8,359.7z M345.5,304.7c-0.1,1.6-2.4,2.7-5,2.5c-2.6-0.2-4.6-1.7-4.4-3.3c0.1-1.6,2.4-2.7,5-2.5
		C343.7,301.6,345.7,303.1,345.5,304.7z M344.1,293.1c0.5,1.5-1.1,3.4-3.6,4.2c-2.5,0.8-4.9,0.2-5.4-1.3c-0.5-1.5,1.1-3.4,3.6-4.2
		C341.2,291,343.6,291.6,344.1,293.1z M331.4,284.6c1.2-2.3,3.3-3.6,4.7-2.9c1.4,0.7,1.6,3.2,0.5,5.5c-1.2,2.3-3.3,3.6-4.7,2.9
		C330.4,289.4,330.2,286.9,331.4,284.6z M320.2,289.7c6.5,0,11.7,8.4,11.7,18.7c0,10.3-5.2,18.7-11.7,18.7
		c-6.5,0-11.7-8.4-11.7-18.7C308.5,298,313.7,289.7,320.2,289.7z M258.6,344.4c2.1-0.3,4.7,0.4,7.3,0.9c0.6,0.1,1.1,0,1.7-0.2
		c10.2-3,11.6,8.4,3.5,9.5c-7.8,0.7-11.9-1.9-14.4-5.3C255.2,347.5,256.3,344.7,258.6,344.4z M213.2,289.7c6.5,0,11.7,8.4,11.7,18.7
		c0,10.3-5.2,18.7-11.7,18.7c-6.5,0-11.7-8.4-11.7-18.7C201.5,298,206.7,289.7,213.2,289.7z M196,281.7c1.4-0.7,3.6,0.6,4.7,2.9
		c1.2,2.3,1,4.8-0.5,5.5c-1.4,0.7-3.6-0.6-4.7-2.9C194.4,284.9,194.6,282.4,196,281.7z M188,293.1c0.5-1.5,2.9-2.1,5.4-1.3
		c2.5,0.8,4.1,2.7,3.6,4.2c-0.5,1.5-2.9,2.1-5.4,1.3S187.5,294.7,188,293.1z M191,301.4c2.6-0.2,4.8,0.9,5,2.5
		c0.1,1.6-1.8,3.1-4.4,3.3c-2.6,0.2-4.8-0.9-5-2.5C186.5,303.1,188.4,301.6,191,301.4z M188.1,339.3c11.3,0,20.4,9.1,20.4,20.4
		c0,11.3-9.1,20.4-20.4,20.4c-11.3,0-20.4-9.1-20.4-20.4C167.7,348.4,176.8,339.3,188.1,339.3z"/>
	<path class="st13" d="M237.3,424.3c0,1.5,0,2.9,0,4.3C237.4,427.2,237.3,425.8,237.3,424.3z"/>
	<path class="st13" d="M297.2,429.8c0-0.4,0-0.7,0-1.1C297.2,429.1,297.2,429.4,297.2,429.8z"/>
	<path class="st13" d="M237.2,436.5C237.2,436.5,237.2,436.4,237.2,436.5C237.2,436.4,237.2,436.5,237.2,436.5z"/>
	<path class="st13" d="M237.3,432.7c0-0.3,0-0.6,0-1C237.3,432,237.3,432.3,237.3,432.7z"/>
	<path class="st13" d="M297.3,436.8c0,0.1,0,0.2,0,0.3C297.3,437.1,297.3,436.9,297.3,436.8z"/>
	<path class="st13" d="M297.2,432.8c0,0.3,0,0.7,0,1C297.2,433.5,297.2,433.2,297.2,432.8z"/>
	<path class="st13" d="M238,440.3c-0.3,0-0.6-0.1-0.9-0.1c0,0,0,0,0,0c0,0,0,0,0,0.1C237.4,440.3,237.7,440.3,238,440.3L238,440.3z"
		/>
	<path class="st13" d="M291.7,441.3c1.2-0.1,2.5-0.3,3.7-0.4C294.2,441,293,441.2,291.7,441.3z"/>
	<path class="st13" d="M285.1,442c1.5-0.1,3.1-0.3,4.6-0.4C288.2,441.7,286.7,441.8,285.1,442z"/>
	<path class="st13" d="M270.4,442.8c4.6-0.1,9-0.3,13.4-0.7c-4.3,0.3-8.7,0.6-13.2,0.7H267c-10.3-0.2-19.9-1.1-29-2.4l0,0.1
		c9,1.3,18.6,2.1,28.8,2.4H270.4z"/>
	<path class="st13" d="M135.6,297.4c-3.4-2.3-7.9-5-13-5.8c0.1,4.8,0.3,9.5,0.6,14.1c1.2-0.1,2.4-0.1,3.6-0.1c3,0.2,5.8,0.8,8.6,1.5
		l-0.5,1.6V349l-4.9-0.8c1.3,4.6,2.7,9.1,4.3,13.4c0.4,0,0.9,0.1,1.3,0.1V297.4z"/>
	<path class="st13" d="M126.5,308.2c-1.1-0.2-2.1-0.3-3.2-0.3c1.1,14.4,3.3,27.9,6.7,40.2l4.9,0.8v-40.2l-0.5,1.6
		C131.8,309.4,129.2,308.6,126.5,308.2z"/>
	<path class="st13" d="M123.5,307.4l11.4,1.3v0l0.5-1.6c-2.8-0.7-5.7-1.3-8.6-1.5c-1.2-0.1-2.4-0.1-3.6,0.1c0,0.6,0.1,1.2,0.1,1.8
		C123.4,307.4,123.4,307.4,123.5,307.4z"/>
	<path class="st13" d="M123.5,307.4c-0.1,0-0.1,0-0.2,0c0,0.2,0,0.3,0,0.5c1.1,0,2.1,0.1,3.2,0.3c2.7,0.5,5.3,1.3,7.9,2.2l0.5-1.6v0
		L123.5,307.4z"/>
	<path class="st13" d="M399.8,297.4v64.1c3.3,0,6.5-0.6,9.4-1.6c1.9-4.8,3.5-9.9,4.9-15c-1.6,1.3-3.4,2.2-5.4,2.6l-8.3,1.4v-40.2h0
		l-0.5-1.6c2.8-0.7,5.7-1.3,8.6-1.5c2.9-0.1,6,0,8.8,1.4c0.8,0.4,1.5,0.9,2.2,1.4c0.3-5.4,0.3-11,0.2-16.6
		C411.8,290,404.6,294.2,399.8,297.4z"/>
	<path class="st13" d="M416.8,308.6c-2.5-0.9-5.2-0.8-7.9-0.4c-2.7,0.5-5.3,1.3-7.9,2.2l-0.5-1.6h0V349l8.3-1.4
		c1.9-0.4,3.7-1.3,5.4-2.6c2.9-10.8,4.7-22.4,5.4-34.7C418.7,309.5,417.8,308.9,416.8,308.6z"/>
	<path class="st13" d="M419.6,309.1c0-0.2,0-0.5,0-0.7c-0.7-0.6-1.4-1-2.2-1.4c-2.8-1.3-5.9-1.5-8.8-1.4c-3,0.2-5.8,0.8-8.6,1.5
		l0.5,1.6l11.4-1.3C415.2,307,417.7,307.7,419.6,309.1z"/>
	<path class="st13" d="M408.9,308.2c2.7-0.4,5.4-0.5,7.9,0.4c1,0.4,1.9,0.9,2.8,1.6c0-0.3,0-0.7,0-1c-1.9-1.4-4.4-2.1-7.6-1.7
		l-11.4,1.3l0.5,1.6C403.6,309.4,406.2,308.6,408.9,308.2z"/>
	<path class="st19" d="M271,354.6c8.2-1,6.7-12.4-3.5-9.5c-0.6,0.2-1.1,0.3-1.7,0.2c-2.6-0.5-5.3-1.2-7.3-0.9
		c-2.3,0.3-3.4,3.1-2,4.9C259.1,352.7,263.2,355.3,271,354.6z"/>
	<path class="st20" d="M213.2,327.1c6.5,0,11.7-8.4,11.7-18.7c0-10.3-5.2-18.7-11.7-18.7c-6.5,0-11.7,8.4-11.7,18.7
		C201.5,318.7,206.7,327.1,213.2,327.1z M214.4,294.4c2.9,0,5.2,2.9,5.2,6.5s-2.3,6.5-5.2,6.5s-5.2-2.9-5.2-6.5
		S211.5,294.4,214.4,294.4z"/>
	<ellipse class="st21" cx="214.4" cy="300.9" rx="5.2" ry="6.5"/>
	<path class="st20" d="M320.2,327.1c6.5,0,11.7-8.4,11.7-18.7c0-10.3-5.2-18.7-11.7-18.7c-6.5,0-11.7,8.4-11.7,18.7
		C308.5,318.7,313.7,327.1,320.2,327.1z M319,294.4c2.9,0,5.2,2.9,5.2,6.5s-2.3,6.5-5.2,6.5s-5.2-2.9-5.2-6.5S316.1,294.4,319,294.4
		z"/>
	<ellipse class="st21" cx="319" cy="300.9" rx="5.2" ry="6.5"/>
	<circle class="st22" cx="188.1" cy="359.7" r="20.4"/>
	
		<ellipse transform="matrix(0.9732 -0.2298 0.2298 0.9732 -73.1651 91.0392)" class="st22" cx="354.4" cy="359.7" rx="20.4" ry="20.4"/>
	<path class="st22" d="M200.3,290.1c1.4-0.7,1.6-3.2,0.5-5.5c-1.2-2.3-3.3-3.6-4.7-2.9c-1.4,0.7-1.6,3.2-0.5,5.5
		C196.8,289.5,198.9,290.8,200.3,290.1z"/>
	<path class="st22" d="M191.5,307.2c2.6-0.2,4.6-1.7,4.4-3.3c-0.1-1.6-2.4-2.7-5-2.5c-2.6,0.2-4.6,1.7-4.4,3.3
		C186.7,306.3,189,307.4,191.5,307.2z"/>
	<path class="st22" d="M191.6,297.4c2.5,0.8,4.9,0.2,5.4-1.3c0.5-1.5-1.1-3.4-3.6-4.2c-2.5-0.8-4.9-0.2-5.4,1.3
		C187.5,294.7,189.1,296.6,191.6,297.4z"/>
	<path class="st22" d="M331.8,290.1c1.4,0.7,3.6-0.6,4.7-2.9c1.2-2.3,1-4.8-0.5-5.5c-1.4-0.7-3.6,0.6-4.7,2.9
		C330.2,286.9,330.4,289.4,331.8,290.1z"/>
	<path class="st22" d="M336.1,303.9c-0.1,1.6,1.8,3.1,4.4,3.3c2.6,0.2,4.8-0.9,5-2.5c0.1-1.6-1.8-3.1-4.4-3.3
		C338.5,301.2,336.3,302.3,336.1,303.9z"/>
	<path class="st22" d="M335.2,296c0.5,1.5,2.9,2.1,5.4,1.3c2.5-0.8,4.1-2.7,3.6-4.2c-0.5-1.5-2.9-2.1-5.4-1.3
		C336.3,292.6,334.7,294.5,335.2,296z"/>
	<polygon class="st13" points="297.5,440.6 297.5,440.6 297.5,440.6 	"/>
	<path class="st13" d="M296.5,440.7L296.5,440.7c0.3,0,0.7-0.1,1-0.1c0,0,0,0,0,0c0,0,0,0,0,0C297.2,440.7,296.8,440.7,296.5,440.7z
		"/>
	<path class="st13" d="M289.7,441.5c0.7-0.1,1.3-0.1,2-0.2C291.1,441.4,290.4,441.5,289.7,441.5z"/>
	<path class="st13" d="M283.8,442.1c0.4,0,0.9-0.1,1.3-0.1C284.7,442,284.2,442,283.8,442.1z"/>
	<path class="st13" d="M296.5,440.7L296.5,440.7c-0.4,0-0.7,0.1-1.1,0.1C295.8,440.8,296.1,440.8,296.5,440.7z"/>
	<path class="st13" d="M237.2,436.4c0-1.2,0.1-2.5,0.1-3.8C237.3,433.9,237.3,435.2,237.2,436.4z"/>
	<path class="st13" d="M297.2,428.7c0-1.4,0-2.9,0-4.4C297.2,425.8,297.2,427.2,297.2,428.7z"/>
	<path class="st13" d="M237.1,440.2c0.1-1.2,0.1-2.4,0.2-3.7C237.2,437.7,237.1,439,237.1,440.2z"/>
	<path class="st13" d="M297.5,440.6C297.5,440.6,297.5,440.6,297.5,440.6c-0.1-1.1-0.1-2.3-0.2-3.4
		C297.4,438.3,297.4,439.5,297.5,440.6z"/>
	<path class="st13" d="M297.2,429.8c0,1,0,2.1,0,3C297.2,431.9,297.2,430.8,297.2,429.8z"/>
	<path class="st13" d="M237.4,428.6c0,1,0,2.1,0,3.1C237.4,430.7,237.4,429.7,237.4,428.6z"/>
	<path class="st13" d="M297.2,433.8c0,1,0,2,0.1,3C297.3,435.8,297.3,434.8,297.2,433.8z"/>
	<path class="st13" d="M238,440.3l1.3-12.7l56.5,0.4l0.7,12.8c0.3,0,0.7-0.1,1-0.1c-0.1-1.1-0.1-2.3-0.2-3.4c0-0.1,0-0.2,0-0.3
		c0-1-0.1-2-0.1-3c0-0.3,0-0.6,0-1c0-1,0-2,0-3c0-0.4,0-0.7,0-1.1c0-1.4,0-2.9,0-4.4h-27.9h-4.2h-27.9c0,1.5,0,2.9,0,4.3
		c0,1.1,0,2.1,0,3.1c0,0.3,0,0.6,0,1c0,1.3-0.1,2.5-0.1,3.8c0,0,0,0,0,0.1c0,1.3-0.1,2.5-0.2,3.7c0,0,0,0,0,0
		C237.4,440.2,237.7,440.3,238,440.3z"/>
	<path class="st13" d="M239.2,427.6l-1.3,12.7c9.1,1.3,18.7,2.2,29,2.4h3.6c4.5-0.1,8.9-0.3,13.2-0.7c0.4,0,0.9-0.1,1.3-0.1
		c1.6-0.1,3.1-0.3,4.6-0.4c0.7-0.1,1.3-0.1,2-0.2c1.2-0.1,2.5-0.3,3.7-0.4c0.4,0,0.7-0.1,1.1-0.1l-0.7-12.8L239.2,427.6z"/>
	<path class="st13" d="M300.5,462.6c0.2,0.9,0.4,1.8,0.7,2.7C300.9,464.5,300.7,463.6,300.5,462.6z"/>
	<path class="st13" d="M302.7,470.8c0.2,0.7,0.5,1.4,0.7,2.1C303.2,472.3,303,471.5,302.7,470.8z"/>
	<path class="st13" d="M233.4,465.5c0.1-0.2,0.1-0.4,0.2-0.7C233.5,465,233.4,465.3,233.4,465.5z"/>
	<path class="st13" d="M233.9,463.2c0-0.2,0.1-0.3,0.1-0.5C234,462.8,234,463,233.9,463.2z"/>
	<path class="st13" d="M232.7,467.9c0.1-0.2,0.1-0.4,0.2-0.5C232.8,467.5,232.8,467.7,232.7,467.9z"/>
	<path class="st13" d="M232.1,469.8c0-0.1,0.1-0.3,0.1-0.4C232.2,469.5,232.2,469.6,232.1,469.8z"/>
	<path class="st13" d="M231.4,471.9c0-0.1,0.1-0.3,0.1-0.4C231.5,471.6,231.5,471.7,231.4,471.9z"/>
	<path class="st13" d="M302,468.4c0.2,0.6,0.4,1.2,0.6,1.8C302.4,469.7,302.2,469.1,302,468.4z"/>
	<path class="st13" d="M301.3,465.8c0.2,0.7,0.4,1.4,0.6,2.1C301.6,467.2,301.4,466.5,301.3,465.8z"/>
	<path class="st13" d="M234.1,462.6C234.1,462.6,234.1,462.6,234.1,462.6c0,0.2-0.1,0.3-0.1,0.5c-0.1,0.6-0.3,1.1-0.4,1.6
		c-0.1,0.2-0.1,0.5-0.2,0.7c-0.2,0.6-0.3,1.2-0.5,1.8c-0.1,0.2-0.1,0.4-0.2,0.5c-0.1,0.5-0.3,1-0.4,1.5c0,0.1-0.1,0.3-0.1,0.4
		c-0.2,0.6-0.4,1.2-0.6,1.7c0,0.1-0.1,0.3-0.1,0.4c-0.2,0.5-0.3,0.9-0.5,1.4c11.2-1.5,23.4-2.3,36-2.3c12.9,0,25.2,0.8,36.6,2.3
		c0-0.1-0.1-0.3-0.1-0.4c-0.2-0.7-0.5-1.4-0.7-2.1c-0.1-0.2-0.1-0.4-0.2-0.5c-0.2-0.6-0.4-1.2-0.6-1.8c-0.1-0.2-0.1-0.4-0.2-0.5
		c-0.2-0.7-0.4-1.4-0.6-2.1c0-0.1-0.1-0.3-0.1-0.4c-0.2-0.9-0.4-1.8-0.7-2.7c0,0,0,0,0,0H234.1z"/>
	<path class="st13" d="M231,473.3c0,0.1-0.1,0.2-0.1,0.3c-1.3,3.6-0.3,7.7,2.6,10.2c13.1,11.7,52.2,15.9,68.1-1.3c2.3-2.5,3-6,2-9.2
		c-11.4-1.5-23.7-2.3-36.6-2.3C254.3,471,242.2,471.8,231,473.3z"/>
	<g>
		<path class="st13" d="M297.2,424.3h-27.9h-4.2h-27.9c0.5,24.3-2.9,39.6-6.5,49.2c-1.3,3.6-0.3,7.7,2.6,10.2
			c13.1,11.7,52.2,15.9,68.1-1.3c2.4-2.6,3.1-6.3,1.9-9.6C300,463.3,296.7,448.1,297.2,424.3z"/>
		<path class="st14" d="M239.2,427.6l56.5,0.4l1,16.5c-9,13.2-52.4,12.7-59.1-0.6L239.2,427.6z"/>
		<g class="st6">
			<path class="st23" d="M374.1,709.8l4.6-19.7l0,0c0-5.8-0.3-11.6-1.1-17.3c-5.2-41-18.1-91.2-31.6-130.3c-3.2-9.3-5.2-19-6-28.8
				l-0.3-4.5c-0.8-10.9,9.8-19,20.1-15.4h0c6,2.1,10.4,7.1,11.9,13.2c11,45.9,26.1,140.1,28.7,164c0.6,5.3,0.8,10.7,0.8,16.1v0
				c1.5,16.3,6.6,30.7,5.7,40.6c-0.2,2.1-1.1,4-2.7,5.5l-6.1,5.9c-1.2,5-4,8-9.9,7.1c-2.3,3.6-4.5,6.7-6.6,7.5
				c-0.6,0.3-1.3-0.2-1.2-0.8c0.8-5.9,4.3-34.3,3-34.5c-4.2-0.5-4.5,15.8-7.9,15.4c-2.7-0.3-2.3-14.8-2.1-20.1
				C373.7,712.3,373.8,711.1,374.1,709.8z"/>
			<path class="st23" d="M159.6,709.8l-4.6-19.7l0,0c0-5.8,0.3-11.6,1.1-17.3c5.2-41,18.1-91.2,31.6-130.3c3.2-9.3,5.2-19,6-28.8
				l0.3-4.5c0.8-10.9-9.8-19-20.1-15.4h0c-6,2.1-10.4,7.1-11.9,13.2c-11,45.9-26.1,140.1-28.7,164c-0.6,5.3-0.8,10.7-0.8,16.1v0
				c-1.5,16.3-6.6,30.7-5.7,40.6c0.2,2.1,1.1,4,2.7,5.5l6.1,5.9c1.2,5,4,8,9.9,7.1c2.3,3.6,4.5,6.7,6.6,7.5c0.6,0.3,1.3-0.2,1.2-0.8
				c-0.8-5.9-4.3-34.3-3-34.5c4.2-0.5,4.5,15.8,7.9,15.4c2.7-0.3,2.3-14.8,2.1-20.1C160,712.3,159.9,711.1,159.6,709.8z"/>
			<polygon class="st24" points="339,675 195,675 185,512 349,512 			"/>
			<ellipse class="st23" cx="267" cy="507.5" rx="104" ry="36.5"/>
			<path class="st23" d="M205,942.8l29,1.2l33-210h-77.1C196.6,827.3,205,942.8,205,942.8z"/>
			<path class="st23" d="M247,982c0,8.3-14.1,15-31.5,15s-31.5-6.7-31.5-15s13-49,33-49C238,933,247,973.7,247,982z"/>
			<path class="st23" d="M328.2,942.8l-29,1.2L267,734h76.3C336.7,827.3,328.2,942.8,328.2,942.8z"/>
			<path class="st23" d="M286.2,982c0,8.3,14.1,15,31.5,15s31.5-6.7,31.5-15s-13-49-33-49C295.2,933,286.2,973.7,286.2,982z"/>
			<polyline class="st23" points="195,675 189.9,734 343.3,734 339,675 			"/>
			<polygon class="st25" points="267,734 195,675 339,675 			"/>
		</g>
		<g class="st6">
			<g>
				<path class="st23" d="M135.6,361.5c-25.8,0-42.3-34.4-34.3-56.5c1.9-5.4,5.8-9.9,11-12.2c9.3-4,17.8,0.9,23.3,4.6V361.5z"/>
				<path class="st26" d="M126.6,347.5c-16.1-3.4-23.2-42.6-3.1-40.1l11.4,1.3V349L126.6,347.5z"/>
				<path class="st27" d="M134.4,310.4c-2.6-0.9-5.2-1.8-7.9-2.2c-2.7-0.4-5.4-0.5-7.9,0.4c-2.5,0.9-4.5,2.8-5.6,5.3
					c-1.1,2.5-1.6,5.3-1.8,8.2c-0.1-2.8,0.1-5.7,1-8.5c0.9-2.8,3-5.3,5.8-6.6c2.8-1.3,5.9-1.5,8.8-1.4c3,0.2,5.8,0.8,8.6,1.5
					L134.4,310.4z"/>
			</g>
			<g>
				<path class="st23" d="M399.8,361.5c25.8,0,42.3-34.4,34.3-56.5c-1.9-5.4-5.8-9.9-11-12.2c-9.3-4-17.8,0.9-23.3,4.6V361.5z"/>
				<path class="st26" d="M408.8,347.5c16.1-3.4,23.2-42.6,3.1-40.1l-11.4,1.3V349L408.8,347.5z"/>
				<path class="st27" d="M400,307.1c2.8-0.7,5.7-1.3,8.6-1.5c2.9-0.1,6,0,8.8,1.4c2.8,1.3,4.9,3.8,5.8,6.6c0.9,2.8,1.1,5.7,1,8.5
					c-0.2-2.8-0.6-5.6-1.8-8.2c-1.1-2.5-3.2-4.5-5.6-5.3c-2.5-0.9-5.2-0.8-7.9-0.4c-2.7,0.5-5.3,1.3-7.9,2.2L400,307.1z"/>
			</g>
			<path class="st23" d="M410.7,229.5C388,138,330.9,118.7,276,115c-7.2-0.5-14.3-0.4-21.3,0.3c-69.3,6.2-123.6,62-130.3,131.3
				C113.1,365.3,150.3,440,266.8,442.8h3.6C392.3,439.8,442,355.4,410.7,229.5z"/>
			<path class="st28" d="M265.9,345.4c0.6,0.1,1.1,0,1.7-0.2c10.2-3,11.6,8.4,3.5,9.5c-7.8,0.7-11.9-1.9-14.4-5.3
				c-1.4-1.9-0.3-4.6,2-4.9C260.6,344.1,263.3,344.8,265.9,345.4z"/>
			<g>
				<ellipse class="st29" cx="213.2" cy="308.4" rx="11.7" ry="18.7"/>
				<ellipse class="st30" cx="214.4" cy="300.9" rx="5.2" ry="6.5"/>
			</g>
			<g>
				<ellipse class="st29" cx="320.2" cy="308.4" rx="11.7" ry="18.7"/>
				<ellipse class="st30" cx="319" cy="300.9" rx="5.2" ry="6.5"/>
			</g>
			<circle class="st31" cx="188.1" cy="359.7" r="20.4"/>
			<circle class="st31" cx="354.4" cy="359.7" r="20.4"/>
			<g>
				<path class="st31" d="M200.8,284.6c1.2,2.3,1,4.8-0.5,5.5c-1.4,0.7-3.6-0.6-4.7-2.9c-1.2-2.3-1-4.8,0.5-5.5
					C197.5,281,199.6,282.2,200.8,284.6z"/>
				<path class="st31" d="M191.5,307.2c2.6-0.2,4.6-1.7,4.4-3.3c-0.1-1.6-2.4-2.7-5-2.5c-2.6,0.2-4.6,1.7-4.4,3.3
					C186.7,306.3,189,307.4,191.5,307.2z"/>
				<path class="st31" d="M193.4,291.8c2.5,0.8,4.1,2.7,3.6,4.2c-0.5,1.5-2.9,2.1-5.4,1.3c-2.5-0.8-4.1-2.7-3.6-4.2
					C188.5,291.6,190.9,291,193.4,291.8z"/>
			</g>
			<g>
				<path class="st31" d="M331.4,284.6c-1.2,2.3-1,4.8,0.5,5.5c1.4,0.7,3.6-0.6,4.7-2.9c1.2-2.3,1-4.8-0.5-5.5
					C334.7,281,332.5,282.2,331.4,284.6z"/>
				<path class="st31" d="M340.6,307.2c-2.6-0.2-4.6-1.7-4.4-3.3c0.1-1.6,2.4-2.7,5-2.5c2.6,0.2,4.6,1.7,4.4,3.3
					C345.4,306.3,343.2,307.4,340.6,307.2z"/>
				<path class="st31" d="M338.8,291.8c-2.5,0.8-4.1,2.7-3.6,4.2c0.5,1.5,2.9,2.1,5.4,1.3c2.5-0.8,4.1-2.7,3.6-4.2
					C343.6,291.6,341.2,291,338.8,291.8z"/>
			</g>
		</g>
		<g class="st6">
			<path class="st23" d="M270.6,442.7c9.5-0.2,18.5-0.9,26.9-2.1c-0.3-4.9-0.4-10.4-0.3-16.3h-27.9h-4.2h-27.9
				c0.1,5.8,0,11.1-0.3,15.9c9.3,1.4,19.3,2.3,29.9,2.6H270.6z"/>
			<path class="st23" d="M230.9,473.5c-1.3,3.6-0.3,7.7,2.6,10.2c13.1,11.7,52.2,15.9,68.1-1.3c2.4-2.6,3.1-6.3,1.9-9.6
				c-1-2.9-2.1-6.3-3-10.3h-66.4C233.1,466.9,232,470.5,230.9,473.5z"/>
		</g>
	</g>
</g>
<g id="Layer_4" class="st2">
	<g class="st6">
		<path class="st29" d="M315,278.6c-10,0.2-13.8-9.4-6.8-15.3c2.9-2.4,6.9-3,10.7-2.6c10.4,1.1,16.9,4.8,18,11.9
			c0.4,2.6-0.3,5.3-2.2,7c-3.7,3.4-9.4,2.1-15.6-0.4C317.7,278.7,316.4,278.6,315,278.6z"/>
		<path class="st29" d="M214.8,278.6c10,0.2,13.8-9.4,6.8-15.3c-2.9-2.4-6.9-3-10.7-2.6c-10.4,1.1-16.9,4.8-18,11.9
			c-0.4,2.6,0.3,5.3,2.2,7c3.7,3.4,9.4,2.1,15.6-0.4C212.1,278.7,213.4,278.6,214.8,278.6z"/>
	</g>
	<g class="st6">
		<path class="st28" d="M233.5,380.6c5.8,1.2,11.5,2.3,17.2,3.2c5.7,0.8,11.3,1.3,17,1.4c5.7,0.1,11.3-0.3,17-1.1
			c5.7-0.8,11.3-1.9,17.2-3.1c-5,3.2-10.6,5.5-16.4,7.1c-5.8,1.6-11.8,2.3-17.9,2.3c-6-0.1-12-0.9-17.8-2.6
			C244.1,386.1,238.6,383.7,233.5,380.6z"/>
		<path class="st28" d="M251.6,396.5c2.9,0.1,5.7,0.3,8.4,0.5c2.8,0.2,5.5,0.3,8.2,0.4c2.7,0.1,5.5,0.1,8.2,0.1c2.8,0,5.5-0.1,8.4,0
			c-2.6,1.3-5.3,2.2-8.2,2.7c-2.8,0.5-5.7,0.8-8.6,0.7c-2.9-0.1-5.8-0.5-8.5-1.2C256.9,399,254.2,398,251.6,396.5z"/>
	</g>
</g>
<g id="Layer_3" class="st2">
	<path class="st12" d="M206.2,276.3c0.5-0.1,1.1-0.2,1.7-0.1c7.1,0.6,14.4,0.6,14.4-5c0-9.9-25.8-6.5-25.8,3.1
		C197.2,278.1,200.3,277.8,206.2,276.3z"/>
	<path class="st12" d="M327.5,276.3c-0.5-0.1-1.1-0.2-1.7-0.1c-7.1,0.6-14.4,0.6-14.4-5c0-9.9,25.8-6.5,25.8,3.1
		C336.5,278.1,333.4,277.8,327.5,276.3z"/>
	<g class="st6">
		<g>
			<g>
				<path class="st32" d="M301.1,380.2c0,0-17.6,2.2-33.6,2.4c-16-0.1-33.6-2.4-33.6-2.4s-3.6,33.2,33.3,33.1c0.1,0,0.2,0,0.3,0
					c0.1,0,0.3,0,0.3,0C304.7,413.5,301.1,380.2,301.1,380.2z"/>
			</g>
			<g>
				<path class="st30" d="M301.1,380.2c0,0-17.6,2.2-33.6,2.4c-16.1-0.1-33.6-2.4-33.6-2.4s-0.2,1.6,0,4.2
					c6.7,2.6,17.3,4.7,33.7,4.6c16.4,0.1,27-2,33.7-4.6C301.3,381.9,301.1,380.2,301.1,380.2z"/>
			</g>
			<g>
				<path class="st33" d="M292,405.6c-5.4-4.4-13.1-7.7-24.3-7.9v0c-0.1,0-0.2,0-0.3,0c-0.1,0-0.2,0-0.3,0v0
					c-11.2,0.2-18.9,3.4-24.3,7.9c5,4.5,12.6,7.8,24.2,7.8c0.1,0,0.2,0,0.3,0c0.1,0,0.2,0,0.3,0C279.4,413.4,287,410.1,292,405.6z"
					/>
			</g>
		</g>
		<g>
			<path class="st28" d="M267.9,414.2c0,0-0.1,0-0.1,0l-0.3,0l-0.3,0c-0.5,0-1,0-1.5,0l-0.3,0c-0.5,0-1,0-1.4-0.1l-0.2,0
				c-0.4,0-0.8-0.1-1.2-0.1l-0.3,0c-0.4,0-0.9-0.1-1.3-0.1l-0.3,0c-0.4,0-0.7-0.1-1.1-0.2l-0.2,0c-0.4-0.1-0.8-0.1-1.2-0.2l-0.4-0.1
				c-0.4-0.1-0.7-0.1-1.1-0.2c-0.1,0-0.1,0-0.2-0.1l-0.1,0c-0.3-0.1-0.6-0.1-0.8-0.2l0,0c-0.1,0-0.3-0.1-0.4-0.1
				c-0.3-0.1-0.6-0.2-1-0.3c-0.1,0-0.3-0.1-0.4-0.1l-0.1,0c-0.2-0.1-0.4-0.1-0.6-0.2c-0.2-0.1-0.4-0.1-0.7-0.2
				c-0.2-0.1-0.4-0.2-0.6-0.2c-0.2-0.1-0.4-0.1-0.5-0.2c-0.1-0.1-0.3-0.1-0.4-0.2c-0.3-0.1-0.6-0.3-1-0.4l-0.3-0.1
				c-0.2-0.1-0.4-0.2-0.6-0.3c0,0,0,0,0,0c-0.4-0.2-0.8-0.4-1.2-0.6l-0.1-0.1c-16.2-9.1-14.4-28.7-14.3-29.5c0-0.2,0.1-0.4,0.3-0.5
				c0.2-0.1,0.4-0.2,0.6-0.2l0.1,0c1.8,0.2,18.3,2.2,33.4,2.3c15.1-0.1,31.6-2.1,33.4-2.3l0.1,0c0.2,0,0.4,0,0.6,0.2
				c0.2,0.1,0.3,0.3,0.3,0.5c0.1,0.8,1.9,20.5-14.3,29.6l-0.1,0c-0.4,0.2-0.8,0.5-1.3,0.7c-0.2,0.1-0.4,0.2-0.6,0.3l-0.3,0.1
				c-0.3,0.1-0.6,0.3-1,0.4c-0.1,0.1-0.3,0.1-0.4,0.2c-0.2,0.1-0.4,0.1-0.5,0.2c-0.2,0.1-0.4,0.2-0.6,0.2c-0.2,0.1-0.4,0.2-0.7,0.2
				c-0.2,0.1-0.4,0.1-0.6,0.2l-0.1,0c-0.1,0-0.3,0.1-0.4,0.1c-0.3,0.1-0.6,0.2-1,0.3c-0.1,0-0.3,0.1-0.4,0.1
				c-0.3,0.1-0.6,0.1-0.8,0.2l-0.1,0c-0.1,0-0.1,0-0.2,0.1c-0.4,0.1-0.7,0.2-1.1,0.2c-0.1,0-0.3,0.1-0.4,0.1
				c-0.4,0.1-0.8,0.1-1.2,0.2l-0.2,0c-0.4,0.1-0.7,0.1-1.1,0.2l-0.3,0c-0.4,0.1-0.9,0.1-1.3,0.1l-0.3,0c-0.4,0-0.8,0.1-1.2,0.1
				l-0.2,0c0,0,0,0,0,0h0c-0.5,0-1,0-1.4,0.1l-0.3,0C268.9,414.1,268.4,414.2,267.9,414.2z M267.5,412.6l0.3,0c0.5,0,1,0,1.5,0
				l0.3,0c0.5,0,0.9,0,1.4-0.1c0,0,0,0,0,0l0.2,0c0.4,0,0.8-0.1,1.2-0.1l0.3,0c0.4,0,0.9-0.1,1.3-0.1l0.3,0c0.4,0,0.7-0.1,1.1-0.1
				l0.2,0c0.4-0.1,0.8-0.1,1.1-0.2c0.1,0,0.3,0,0.4-0.1c0.4-0.1,0.7-0.1,1.1-0.2l0.3-0.1c0.3-0.1,0.5-0.1,0.8-0.2
				c0.2,0,0.3-0.1,0.4-0.1c0.3-0.1,0.6-0.2,0.9-0.3c0.1,0,0.2-0.1,0.4-0.1l0.1,0c0.2-0.1,0.4-0.1,0.6-0.2c0.2-0.1,0.4-0.1,0.6-0.2
				c0.2-0.1,0.4-0.1,0.6-0.2c0.2-0.1,0.3-0.1,0.5-0.2c0.1,0,0.2-0.1,0.4-0.1c0.3-0.1,0.6-0.3,0.9-0.4l0.2-0.1
				c0.2-0.1,0.4-0.2,0.6-0.3c0.4-0.2,0.8-0.4,1.2-0.6l0.1,0c13.7-7.7,13.8-23.5,13.6-27.2c-3.7,0.4-18.9,2.2-32.9,2.3
				c-14-0.1-29.2-1.8-32.9-2.3c-0.2,3.8-0.1,19.6,13.6,27.2l0.1,0c0.4,0.2,0.8,0.4,1.2,0.6c0.2,0.1,0.4,0.2,0.6,0.3l0.2,0.1
				c0.3,0.1,0.6,0.3,0.9,0.4c0.1,0.1,0.2,0.1,0.4,0.1c0.2,0.1,0.3,0.1,0.5,0.2c0.2,0.1,0.4,0.1,0.6,0.2c0.2,0.1,0.4,0.1,0.6,0.2
				c0.2,0.1,0.4,0.1,0.6,0.2l0.1,0c0.1,0,0.2,0.1,0.4,0.1c0.3,0.1,0.6,0.2,0.9,0.3c0.1,0,0.3,0.1,0.4,0.1l0,0
				c0.3,0.1,0.5,0.1,0.8,0.2l0.1,0c0.1,0,0.1,0,0.2,0c0.4,0.1,0.7,0.1,1.1,0.2l0.4,0.1c0.4,0.1,0.8,0.1,1.1,0.2l0.2,0
				c0.4,0.1,0.7,0.1,1.1,0.1l0.3,0c0.4,0,0.8,0.1,1.3,0.1l0.3,0c0.4,0,0.8,0.1,1.2,0.1l0.2,0c0.5,0,0.9,0,1.4,0.1l0.3,0
				c0.5,0,1,0,1.5,0L267.5,412.6z"/>
		</g>
	</g>
</g>
<g id="Layer_6" class="st2">
	<path class="st12" d="M377.7,672.8c-5.1-40-17.6-89-30.7-127.7L339,675l2.7,36.7c3.3-1,6.5-2,9.4-3.2l-4.8,14
		c12.1,0.2,20.3-6.8,28.8-16.8l3.7-15.6C378.8,684.3,378.4,678.5,377.7,672.8z"/>
	<path class="st12" d="M187,544.3c-13.3,38.8-25.8,88.2-31,128.5c-0.7,5.7-1.1,11.5-1.1,17.3l4.6,19.7c0.3,1.2,0.5,2.5,0.5,3.7
		c0,1,0.1,2.4,0.1,4c3,0.4,6,0.7,9.1,0.9l-11.7-25.1c7.7,10,19,15.5,34.1,18.7L195,675L187,544.3z"/>
	<path class="st12" d="M132.5,687c0-5.4,0.2-10.7,0.8-16.1c2.5-23.9,17.7-118.1,28.7-164c0.6-2.5,1.7-4.8,3.2-6.8
		c7.2-12.4,32.5-22.6,65.9-26.9c0.2-0.4,0.3-0.9,0.5-1.4c0-0.1,0.1-0.3,0.1-0.4c0.2-0.6,0.4-1.1,0.6-1.7c0-0.1,0.1-0.3,0.1-0.4
		c0.2-0.5,0.3-1,0.4-1.5c0.1-0.2,0.1-0.4,0.2-0.5c0.2-0.6,0.3-1.2,0.5-1.8c0.1-0.2,0.1-0.4,0.2-0.7c0.1-0.5,0.3-1.1,0.4-1.6
		c0-0.2,0.1-0.3,0.1-0.5c1.4-6,2.5-13.4,3-22.4c-54.1-8.2-86.8-35.8-102.8-78.7c-25.1-1.1-40.9-34.7-33-56.5
		c1.9-5.4,5.8-9.9,11-12.2c3.6-1.5,7-1.8,10.2-1.2c-0.2-11.5,0.2-23.6,1.1-36.1c-63.1,21.3-44,148.9-50.5,259.9
		c-0.7,11.5,2,174.1,46.6,195.1l-12.4-22.5c6.3,7.9,13.6,14.2,21.8,19.1C130.5,701,131.8,694.2,132.5,687L132.5,687z"/>
	<path class="st12" d="M419.1,278.8c0.4,4.4,0.6,8.7,0.7,12.9c1.1,0.2,2.2,0.6,3.3,1.1c5.2,2.2,9.1,6.8,11,12.2
		c7,19.3-4.6,47.9-24.8,54.9c-17.1,44-54.8,72.8-111.8,80.7c0,0,0,0,0,0c0.5,8.8,1.6,16.1,3,22c0.2,0.9,0.4,1.8,0.7,2.7
		c0,0.1,0.1,0.3,0.1,0.4c0.2,0.7,0.4,1.4,0.6,2.1c0.1,0.2,0.1,0.4,0.2,0.5c0.2,0.6,0.4,1.2,0.6,1.8c0.1,0.2,0.1,0.4,0.2,0.5
		c0.2,0.7,0.5,1.4,0.7,2.1c0,0.1,0.1,0.3,0.1,0.4c34.9,4.6,60.9,15.6,66.3,28.9c0.8,1.4,1.4,3,1.8,4.7c11,45.9,26.1,140.1,28.7,164
		c0.6,5.3,0.8,10.7,0.8,16.1v0c0.8,8.7,2.6,16.8,4,24c58.3-30,48.2-83,56-151.4C477.6,414.1,457.9,327.7,419.1,278.8z"/>
</g>
</svg>
