<svg xmlns="http://www.w3.org/2000/svg" width="48.99" height="49" viewBox="0 0 48.99 49">
  <g id="logo" transform="translate(0.158 -0.4)">
    <path id="Path_198" data-name="Path 198" d="M0,104.058V92.523a.538.538,0,0,1,.415-.138c2.03.092,4.06-.023,6.09.023,1.107.023,2.192-.046,3.3.023a1.338,1.338,0,0,0,1.015-.346c.115-.115.277-.3.484-.046a21.239,21.239,0,0,1,.069,2.422,12.778,12.778,0,0,0,.069,2.1,15.963,15.963,0,0,1,.069,2.1,3.473,3.473,0,1,0,6.944-.069c.023-2.145,0-4.314,0-6.46a1.306,1.306,0,0,1,.138-.831c.415.023.323.369.3.577-.023.461.138.554.6.554,2.561-.023,5.121,0,7.705-.023.9,0,1.776.023,2.676,0a1.346,1.346,0,0,0,.6-.138c.438-.254.554-.185.554.346.023,1.107,0,2.215,0,3.3a2.217,2.217,0,0,0,.069.784,13.594,13.594,0,0,1,.046,1.938,3.484,3.484,0,1,0,6.967.046c.023-2.169,0-4.337,0-6.506a1.467,1.467,0,0,1,.115-.831c.3.069.346.069.323.392-.046.554.185.715.715.692,1.984-.023,3.968,0,5.975-.023,1.061,0,2.122,0,3.184.023a.887.887,0,0,1,.484.115v11.512c-.369.254-.784.092-1.153.069a21.866,21.866,0,0,0-6.137.3,28.944,28.944,0,0,0-11.835,4.914.907.907,0,0,1-.6.277c-.231-.208-.069-.438.023-.623a2.408,2.408,0,0,0-3.737-2.838c-.9.646-.9.646-1.8,0a2.4,2.4,0,0,0-3.922,1.476,2.209,2.209,0,0,0,.208,1.384c.092.231.254.438.023.692-.3.023-.484-.208-.692-.346a28.175,28.175,0,0,0-12.3-5.052,22.664,22.664,0,0,0-6.367-.161C.415,104.2.185,104.288,0,104.058Z" transform="translate(-0.122 -69.93)" fill="#fe6500"/>
    <path id="Path_199" data-name="Path 199" d="M.1,11.727C.077,5.568,4.022,1.323,9.374.608A22.6,22.6,0,0,1,12.442.4H37.265a12.109,12.109,0,0,1,7.059,1.892,10.527,10.527,0,0,1,4.591,7.936,6.28,6.28,0,0,1,.092,1.476,1.7,1.7,0,0,0-1.315-.392c-2.007.023-3.991.069-6,.046-3.53-.023-7.082-.046-10.612-.046-2.353,0-4.729-.069-7.082,0-2.007.046-3.991.046-6,.023-4.545.046-9.136.046-13.7.023-1.153,0-2.284.046-3.437,0C.515,11.335.353,11.635.1,11.727Z" transform="translate(-0.198)" fill="#fe8800"/>
    <path id="Path_200" data-name="Path 200" d="M.049,47.519c.046-.554.415-.669.854-.554a5.02,5.02,0,0,0,1.177-.023c3.276.023,6.552,0,9.828.023,1.269,0,2.538.092,3.783.046,1.269-.023,2.538-.046,3.783-.023,1.038,0,2.076.046,3.091.023,1.707-.023,3.414-.023,5.145-.046,2.4-.023,4.775-.069,7.175.023,1.476.046,2.976,0,4.452.023,1.061.023,2.145.023,3.23-.023,1.846-.092,3.714,0,5.583-.046.461,0,.738.092.807.577,0,1.869,0,3.737.023,5.606a.767.767,0,0,1-.646.277c-1.8.023-3.622-.023-5.421-.023-2.215,0-4.452-.046-6.667.023-.9.023-1.8.577-2.722-.023-.208-.138-.6.046-.9.046-3.737,0-7.475-.023-11.189-.046-1.569,0-3.114.046-4.683-.023a2.037,2.037,0,0,0-1.038.254,1.371,1.371,0,0,1-1.269-.023,1.687,1.687,0,0,0-.946-.161c-2.33-.092-4.683.023-7.013,0-1.938-.023-3.876,0-5.814-.046a.807.807,0,0,1-.6-.138C.026,51.348.026,49.434.049,47.519Z" transform="translate(-0.148 -35.792)" fill="#fe7600"/>
    <path id="Path_201" data-name="Path 201" d="M4.145,177.05A9.237,9.237,0,0,1,1.4,171.675c.161-.531.6-.531,1.015-.531,1.73-.023,3.46,0,5.214,0,4.037-.023,8.074,0,12.135,0a4.577,4.577,0,0,1,2.215.415,1.179,1.179,0,0,1,.715.438l1.776,1.776a1.477,1.477,0,0,0,2.422-.023c.761-.761,1.546-1.523,2.307-2.307a1.255,1.255,0,0,1,.761-.461,3.358,3.358,0,0,1,1.5-.3h17.3c.369,0,.784-.069,1.038.3a9.7,9.7,0,0,1-2.1,5.237c-.231.3-.392.669-.761.831-.046-.484-.3-.623-.784-.623q-20.624.035-41.226,0C4.422,176.427,4.191,176.589,4.145,177.05Z" transform="translate(-1.199 -130.995)" fill="#feddc9"/>
    <path id="Path_202" data-name="Path 202" d="M0,73.915H3.53c1.846,0,3.691.069,5.514-.023,1.015-.046,2.03.092,3.045-.046a7.543,7.543,0,0,1,2.03.092c.346.069.646.392,1.084.323.3-.046.508-.3.831-.346a12.056,12.056,0,0,1,1.823-.023,28.812,28.812,0,0,0,3.161-.046c.854-.046,1.707.046,2.584.023a21.44,21.44,0,0,0,2.722-.023,3.969,3.969,0,0,1,.738.046c1.915-.023,3.806,0,5.721-.023.508,0,1.015-.208,1.476.3a.7.7,0,0,0,.854-.046,2.145,2.145,0,0,1,1.661-.277,17.672,17.672,0,0,1,1.915,0c.877.161,1.753-.115,2.63.023.9.115,1.8-.046,2.7.023a24.79,24.79,0,0,0,3.207,0,4.613,4.613,0,0,0,1.684-.092v5.26c-.323.231-.646,0-.992.023-1.292.115-2.584.046-3.876.046-.992,0-2.007.069-3-.023a15.1,15.1,0,0,0-2.284.023c-.323.023-.346-.069-.369-.323-.023-.323.115-.692-.092-.992-.231-.185-.231-.461-.3-.715A3.543,3.543,0,0,0,32.92,74.93,3.47,3.47,0,0,0,31.144,78.3c.023,1.384,0,2.791,0,4.176a2.275,2.275,0,0,1-.069.554.31.31,0,0,1-.138.161,1.5,1.5,0,0,1-.092-.9c-.023-1.2,0-2.376,0-3.691-.623.807-1.407.461-2.076.531-.946.092-1.938-.069-2.907,0-.877.069-1.776-.069-2.653-.023a26.8,26.8,0,0,0-2.722.046c-.508.069-1.038-.208-1.546.069-.208.115-.185-.161-.185-.3-.046-.369.092-.761-.092-1.107-.231-.185-.231-.461-.3-.715a3.54,3.54,0,0,0-4.914-2.238,3.709,3.709,0,0,0-2.076,3.23.556.556,0,0,1-.161.415c-.6.877-1.523.692-2.33.623-.623-.069-1.223.023-1.846,0a9.269,9.269,0,0,0-1.961-.023c-.946.185-1.915-.046-2.884.046a17.029,17.029,0,0,1-2.169-.069C0,77.353,0,75.646,0,73.915Z" transform="translate(-0.122 -56.467)" fill="#fe7500"/>
    <path id="Path_203" data-name="Path 203" d="M12.359,195.515c.023-.277-.392-.531-.254-.692.208-.254.6-.092.923-.092H54.923c.484-.046.646.092.3.531a.977.977,0,0,0-.092.277,9.936,9.936,0,0,1-3.045,2.215,11.841,11.841,0,0,1-3.9.992,47.428,47.428,0,0,1-5.121.092c-7.544.023-15.088.046-22.631-.023a11.5,11.5,0,0,1-7.244-2.445A7.3,7.3,0,0,1,12.359,195.515Z" transform="translate(-9.413 -149.461)" fill="#fecfbc"/>
    <path id="Path_204" data-name="Path 204" d="M20.918,152.531c-.069.023-.161.069-.208.046a3.832,3.832,0,0,0-2.261-.415H6.084c-1.615,0-3.23.023-4.845,0a1.39,1.39,0,0,0-1.038.346,7.016,7.016,0,0,1-.323-2.284c-.069-1.43-.023-2.838,0-4.268A27.375,27.375,0,0,1,17.5,149.947c.831.508,1.615,1.084,2.422,1.638A1.673,1.673,0,0,1,20.918,152.531Z" transform="translate(0 -111.828)" fill="#feecd7"/>
    <path id="Path_205" data-name="Path 205" d="M144.418,151.915a3.321,3.321,0,0,0-.946-.115H126.078a2.85,2.85,0,0,0-1.384.254c-.115.069-.208.092-.3-.023-.023-.3.161-.438.438-.461a33.137,33.137,0,0,1,6.183-3.46,26.461,26.461,0,0,1,13.611-2.03c0,1.43.046,2.884,0,4.314A4.948,4.948,0,0,1,144.418,151.915Z" transform="translate(-95.817 -111.927)" fill="#feefda"/>
    <path id="Path_206" data-name="Path 206" d="M48.6,79.742a4.343,4.343,0,0,1,1.2-2.722,3.713,3.713,0,0,1,4.983-.046,3.824,3.824,0,0,1,1.246,2.538c0,2.468,0,4.937-.023,7.428a3.661,3.661,0,0,1-7.313.231c-.046-.761-.023-1.523-.023-2.284a.2.2,0,0,1,0-.161A7.457,7.457,0,0,1,50.007,83.5c.9-.761.946-1.476.115-2.284-.438-.438-.946-.761-1.338-1.223A2.416,2.416,0,0,1,48.6,79.742Z" transform="translate(-37.51 -58.188)" fill="#2b1900"/>
    <path id="Path_207" data-name="Path 207" d="M133.88,85.109a.175.175,0,0,0,.046-.092,5.7,5.7,0,0,1,1.223-1.246,3.708,3.708,0,0,0,.531-.508,1.171,1.171,0,0,0-.092-1.569,14.3,14.3,0,0,0-1.061-.969,1.459,1.459,0,0,1-.554-.692c-.115-.069-.208-.138-.185-.3.508-2.261,1.569-3.368,3.807-3.437,1.892-.046,3.276,1.315,3.622,3.437,0,2.468,0,4.937-.023,7.428a3.661,3.661,0,0,1-7.313.254C133.88,86.631,133.9,85.87,133.88,85.109Z" transform="translate(-103.043 -58.386)" fill="#2b1900"/>
    <path id="Path_208" data-name="Path 208" d="M94.453,156.767c-.138.161-.3.323-.438.461l-2.745,2.745a1.71,1.71,0,0,1-2.722,0c-.738-.715-1.384-1.5-2.192-2.145-.323-.323-.646-.646-.992-.946,0-.208-.138-.346-.208-.531a2.605,2.605,0,0,1,.784-3.207,2.559,2.559,0,0,1,3.3.231c.669.6.669.6,1.315,0a2.559,2.559,0,0,1,3.3-.231,2.6,2.6,0,0,1,.761,3.276A2.479,2.479,0,0,0,94.453,156.767Z" transform="translate(-65.438 -117.125)" fill="#2b1900"/>
    <path id="Path_209" data-name="Path 209" d="M48.474,92.1c.069.023.115.046.185.069a2.231,2.231,0,0,1,.115.784v3.322a1.934,1.934,0,0,1-.185.877.12.12,0,0,1-.046.092c-.161-.185-.092-.392-.092-.6V92.561A3.25,3.25,0,0,1,48.474,92.1Z" transform="translate(-37.384 -70.545)" fill="#fe7600"/>
    <path id="Path_210" data-name="Path 210" d="M134.292,92.5c.531.484,1.084.946,1.615,1.43a1.3,1.3,0,0,1,0,2.076c-.554.508-1.13.969-1.684,1.453,0-1.592-.023-3.184-.023-4.775A1.369,1.369,0,0,0,134.292,92.5Z" transform="translate(-103.362 -70.853)" fill="#fef6e1"/>
    <path id="Path_211" data-name="Path 211" d="M49.023,97.483c0-1.592-.023-3.184-.023-4.775a.733.733,0,0,1,.069-.208c.531.484,1.084.946,1.615,1.43a1.3,1.3,0,0,1,0,2.076C50.153,96.514,49.577,97,49.023,97.483Z" transform="translate(-37.818 -70.853)" fill="#fef6e1"/>
  </g>
</svg>
